<svg xmlns="http://www.w3.org/2000/svg" xmlns:xlink="http://www.w3.org/1999/xlink" version="1.0" x="0px" y="0px" viewBox="0 0 4000 2500" enable-background="new 0 0 4000 2500" xml:space="preserve" width="4000px" height="2500px">
<g id="BACKGROUND">
	<linearGradient id="SVGID_1_" gradientUnits="userSpaceOnUse" x1="-57.0811" y1="450.6896" x2="3959.906" y2="2011.5515">
		<stop offset="1.239670e-02" style="stop-color: rgb(255, 243, 230);"/>
		<stop offset="0.9959" style="stop-color: rgb(255, 236, 207);"/>
	</linearGradient>
	<rect fill="url(#SVGID_1_)" width="4000" height="2500"/>
	
		<linearGradient id="SVGID_00000115501737996839612690000008001769537262871224_" gradientUnits="userSpaceOnUse" x1="1584.7936" y1="1827.0082" x2="1876.2383" y2="1827.0082" gradientTransform="matrix(0.866 0.5 -1 0.5774 1648.0164 -1131.8433)">
		<stop offset="4.132230e-03" style="stop-color: rgb(255, 233, 194);"/>
		<stop offset="1" style="stop-color: rgb(255, 224, 186);"/>
	</linearGradient>
	<path fill="url(#SVGID_00000115501737996839612690000008001769537262871224_)" d="M1373.8,902.8c-29.8,17.2-78.5,17.2-108.3,0   l-144.1-83.2c-29.8-17.2-29.8-45.3,0-62.5l144.1-83.2c29.8-17.2,78.5-17.2,108.3,0l144.1,83.2c29.8,17.2,29.8,45.3,0,62.5   L1373.8,902.8z"/>
	
		<linearGradient id="SVGID_00000045579144800684884660000010322784039926722452_" gradientUnits="userSpaceOnUse" x1="1807.7379" y1="1278.8246" x2="2099.1829" y2="1278.8246" gradientTransform="matrix(0.866 0.5 -1 0.5774 1648.0164 -1131.8433)">
		<stop offset="4.132230e-03" style="stop-color: rgb(255, 233, 194);"/>
		<stop offset="1" style="stop-color: rgb(255, 224, 186);"/>
	</linearGradient>
	<path fill="url(#SVGID_00000045579144800684884660000010322784039926722452_)" d="M2115,697.7c-29.8,17.2-78.5,17.2-108.3,0   l-144.1-83.2c-29.8-17.2-29.8-45.3,0-62.5l144.1-83.2c29.8-17.2,78.5-17.2,108.3,0l144.1,83.2c29.8,17.2,29.8,45.3,0,62.5   L2115,697.7z"/>
	
		<linearGradient id="SVGID_00000097485790258040075230000015104926061401426058_" gradientUnits="userSpaceOnUse" x1="2928.1978" y1="565.8174" x2="3219.6428" y2="565.8174" gradientTransform="matrix(0.866 0.5 -1 0.5774 1648.0164 -1131.8433)">
		<stop offset="4.132230e-03" style="stop-color: rgb(255, 233, 194);"/>
		<stop offset="1" style="stop-color: rgb(255, 224, 186);"/>
	</linearGradient>
	<path fill="url(#SVGID_00000097485790258040075230000015104926061401426058_)" d="M3798.3,846.3c-29.8,17.2-78.5,17.2-108.3,0   L3546,763.1c-29.8-17.2-29.8-45.3,0-62.5l144.1-83.2c29.8-17.2,78.5-17.2,108.3,0l144.1,83.2c29.8,17.2,29.8,45.3,0,62.5   L3798.3,846.3z"/>
	
		<linearGradient id="SVGID_00000067200001470641576670000005571387472378087334_" gradientUnits="userSpaceOnUse" x1="241.3517" y1="1572.7424" x2="4000" y2="1572.7424">
		<stop offset="4.132230e-03" style="stop-color: rgb(255, 233, 194);"/>
		<stop offset="0.9917" style="stop-color: rgb(254, 219, 174);"/>
	</linearGradient>
	<path fill="url(#SVGID_00000067200001470641576670000005571387472378087334_)" d="M4000,1282.2v974L3577.7,2500H1249.4   l-985.7-569.1c-29.8-17.2-29.8-45.3,0-62.5l284.5-164.3c29.8-17.2,29.8-45.3,0-62.5l-166.6-96.2c-29.8-17.2-29.8-45.3,0-62.5   l627.1-362.1c29.8-17.2,78.5-17.2,108.3,0l166.6,96.2c29.7,17.2,78.5,17.2,108.2,0l967.6-558.7c29.8-17.2,78.5-17.2,108.3,0   l266.8,154c29.8,17.2,78.5,17.2,108.2,0l117.7-67.9c29.8-17.2,78.5-17.2,108.2,0L4000,1282.2z"/>
</g>
<g id="OBJECT">
	<g>
		<path fill="#F6E7E0" d="M2747.4,1693.6c-64.5-37.3-169.1-37.3-233.6,0c-54.1,31.2-62.8,78.7-26.2,115.2l-61.3-21.5    c-17.9-10.3-45.4-11.3-61.1-2.2c-15.7,9.1-14,25,3.9,35.3l135.5,78.2c17.9,10.3,45.4,11.3,61.1,2.2c14.4-8.3,57.3-32.7,51-44.7    c46.8,2.3,94.9-6.9,130.7-27.6C2811.9,1791.2,2811.9,1730.8,2747.4,1693.6z"/>
		<g>
			<path fill="#FFA419" d="M2776.5,1721c0,9.6-0.1,19.2-0.1,28.8c-0.1,22-14.5,44-43.5,60.8c-58.2,33.8-152.9,33.8-211.5,0     c-29.5-17-44.2-39.4-44.2-61.7c0-9.6,0.1-19.2,0.1-28.8c-0.1,22.3,14.7,44.7,44.2,61.7c58.6,33.8,153.3,33.8,211.5,0     C2762,1765,2776.5,1743,2776.5,1721z"/>
			<path fill="#FFCA41" d="M2732.4,1659.3c58.6,33.8,58.9,88.7,0.7,122.5c-58.2,33.8-152.9,33.8-211.5,0     c-58.6-33.8-58.9-88.7-0.7-122.5C2579.1,1625.5,2673.8,1625.5,2732.4,1659.3z"/>
		</g>
		<g>
			<path fill="#FFA419" d="M2788.8,1684.2c0,9.6-0.1,19.2-0.1,28.8c0,22-14.5,44-43.5,60.8c-58.2,33.8-152.9,33.8-211.5,0     c-29.5-17-44.2-39.4-44.2-61.7c0-9.6,0.1-19.2,0.1-28.8c-0.1,22.3,14.7,44.7,44.2,61.7c58.6,33.8,153.3,33.8,211.5,0     C2774.3,1728.3,2788.7,1706.3,2788.8,1684.2z"/>
			<path fill="#FFCA41" d="M2744.6,1622.6c58.6,33.8,58.9,88.7,0.7,122.5c-58.2,33.8-152.9,33.8-211.5,0     c-58.6-33.8-58.9-88.7-0.7-122.5C2591.3,1588.7,2686,1588.7,2744.6,1622.6z"/>
		</g>
		<g>
			<path fill="#FFA419" d="M2772.2,1655.1c0,9.6-0.1,19.2-0.1,28.8c-0.1,22-14.5,44-43.5,60.8c-58.2,33.8-152.9,33.8-211.5,0     c-29.5-17-44.2-39.4-44.2-61.7c0-9.6,0.1-19.2,0.1-28.8c-0.1,22.3,14.7,44.7,44.2,61.7c58.6,33.8,153.3,33.8,211.5,0     C2757.7,1699.1,2772.2,1677.1,2772.2,1655.1z"/>
			<path fill="#FFCA41" d="M2728.1,1593.4c58.6,33.8,58.9,88.7,0.7,122.5c-58.2,33.8-152.9,33.8-211.5,0     c-58.6-33.8-58.9-88.7-0.7-122.5C2574.8,1559.6,2669.5,1559.6,2728.1,1593.4z"/>
		</g>
		<g>
			<path fill="#FFA419" d="M2788.8,1612c0,9.6-0.1,19.2-0.1,28.8c-0.1,22-14.5,44-43.5,60.8c-58.2,33.8-152.9,33.8-211.5,0     c-29.5-17-44.2-39.4-44.2-61.7c0-9.6,0.1-19.2,0.1-28.8c-0.1,22.3,14.7,44.7,44.2,61.7c58.6,33.8,153.3,33.8,211.5,0     C2774.2,1656,2788.7,1634,2788.8,1612z"/>
			<path fill="#FFCA41" d="M2744.6,1550.3c58.6,33.8,58.9,88.7,0.7,122.5c-58.2,33.8-152.9,33.8-211.5,0     c-58.6-33.8-58.9-88.7-0.7-122.5C2591.3,1516.5,2686,1516.5,2744.6,1550.3z"/>
			<path fill="#FFC351" d="M2770.8,1616.7c-2.2,14.8-14.2,29.2-34.3,40.9c-25.5,14.8-59.9,23-96.7,23c-36.9,0-71.4-8.2-97.1-23     c-20.6-11.9-32.8-26.4-35-41.4c2.2-14.8,14.2-29.1,34.3-40.9c25.5-14.8,59.9-23,96.7-23c36.9,0,71.4,8.2,97.1,23     C2756.3,1587.2,2768.6,1601.7,2770.8,1616.7z"/>
			<path fill="#FFA419" d="M2771.1,1611.8c0,1.6-0.1,3.3-0.4,4.9c-2.2-15-14.4-29.5-35-41.4c-25.7-14.8-60.2-23-97.1-23     c-36.9,0-71.2,8.2-96.7,23c-20.2,11.7-32.2,26.1-34.3,40.9c-0.2-1.6-0.4-3.2-0.4-4.8c0-16.5,12.3-32.8,34.7-45.8     c25.5-14.8,59.9-23,96.7-23c36.9,0,71.4,8.2,97.1,23C2758.5,1578.7,2771.1,1595.1,2771.1,1611.8z"/>
			<path fill="#FFD43D" d="M2770.8,1616.7c-2.2,14.8-14.2,29.2-34.3,40.9c-25.5,14.8-59.9,23-96.7,23c-36.9,0-71.4-8.2-97.1-23     c-20.6-11.9-32.8-26.4-35-41.4c2.2-14.8,14.2-29.1,34.3-40.9c25.5-14.8,59.9-23,96.7-23c36.9,0,71.4,8.2,97.1,23     C2756.3,1587.2,2768.6,1601.7,2770.8,1616.7z"/>
			<g>
				<path fill="#FFA419" d="M2639.7,1682.1c-37.2,0-71.9-8.2-97.8-23.2c-20.8-12-33.5-27.1-35.8-42.6c-0.2-1.7-0.4-3.4-0.4-5      c0-17.1,12.6-33.8,35.5-47.1c25.7-15,60.4-23.2,97.5-23.2c37.2,0,71.9,8.2,97.9,23.2l0,0c23.2,13.4,36.1,30.3,36.1,47.6      c0,1.7-0.1,3.4-0.4,5.1c-2.2,15.2-14.7,30.1-35.1,42C2711.5,1673.9,2676.9,1682.1,2639.7,1682.1z M2638.7,1544.1      c-36.6,0-70.7,8.1-96,22.8c-21.9,12.7-33.9,28.5-33.9,44.4c0,1.5,0.1,3,0.3,4.6c2.1,14.4,14.3,28.8,34.2,40.3      c25.5,14.7,59.7,22.8,96.3,22.8c36.6,0,70.7-8.1,96-22.8c19.6-11.4,31.5-25.5,33.6-39.7c0.2-1.6,0.3-3.1,0.3-4.7      c0-16.1-12.3-32-34.6-44.9l0,0C2709.5,1552.2,2675.3,1544.1,2638.7,1544.1z"/>
			</g>
			<g>
				<g>
					<path fill="#FFA419" d="M2706.8,1583.8l-9.5,5.5l0,5.8l9.5-5.5c2.8-1.6,4.2-3.8,4.2-5.9l0-5.8       C2711,1580,2709.6,1582.2,2706.8,1583.8z"/>
					<path fill="#FFA419" d="M2697.1,1609.4c-5.5,1.3-11.6,0.4-15.5-1.9c-1.4-0.8-2.5-1.8-3.3-2.9c-3-4.4-6.7-7.9-10.6-10.1       c-2.9-1.7-5.9-2.7-8.8-2.9c-4.8-0.4-7.9,1.6-9,2.5c-2.1,1.6-3.1,3.7-3.1,6l0,5.8c0-2.3,1-4.4,3.1-6c1.1-0.9,4.2-2.9,9-2.5       c2.9,0.2,5.9,1.2,8.8,2.9c3.9,2.3,7.6,5.7,10.6,10.1c0.8,1.1,1.9,2.1,3.3,2.9c4,2.3,10,3.1,15.5,1.9c5.7-1.3,9.2-4.4,9.2-7.8       l0-5.8C2706.3,1604.9,2702.8,1608.1,2697.1,1609.4z"/>
					<path fill="#FFA419" d="M2627.5,1629.8l0-5.8c0-2.8-1.2-6.1-4.1-9.8c-3.8-4.7-5.7-9.6-5.7-14.3l0,5.7c0,4.7,1.9,9.6,5.6,14.3       C2626.3,1623.7,2627.5,1627,2627.5,1629.8z"/>
					<path fill="#FFA419" d="M2575.4,1642.1l0-5.8c-2.7-2.2-5.3-4.6-7.6-7.3c-1-1.2-1.5-2.5-1.5-3.8l0,5.8c0,1.3,0.5,2.6,1.5,3.8       C2570.1,1637.5,2572.7,1639.9,2575.4,1642.1z"/>
					<path fill="#FFA419" d="M2632.8,1647.8c-10.2,2.8-23,3.1-35.5-0.4l-8.8,5.1c-5.6,3.3-14.8,3.3-20.5,0c-2.9-1.6-4.3-3.8-4.3-6       l0,5.8c0,2.2,1.4,4.3,4.3,6c5.7,3.3,14.9,3.3,20.5,0l8.8-5.1c12.5,3.5,25.3,3.2,35.5,0.4c13.7-3.8,23.8-12.4,23.8-23.6       c0-1.9,0-3.8,0-5.8C2656.6,1635.5,2646.5,1644,2632.8,1647.8z"/>
				</g>
				<path fill="#FFDF64" d="M2706.7,1571.9c5.7,3.3,5.7,8.6,0.1,11.9l-9.5,5.5c2.8,2.6,5.5,5.6,8,9.2c3,4.3-0.7,9.2-8.1,10.9      c-5.5,1.3-11.6,0.4-15.5-1.9c-1.4-0.8-2.5-1.8-3.3-2.9c-3-4.4-6.7-7.9-10.6-10.1c-2.9-1.7-5.9-2.7-8.8-2.9      c-4.8-0.4-7.9,1.6-9,2.5c-4.1,3.2-4.2,8.2-0.2,13.2c15.4,19.3,3.1,34.9-16.9,40.5c-10.2,2.8-23,3.1-35.5-0.4l-8.8,5.1      c-5.6,3.3-14.8,3.3-20.5,0c-5.7-3.3-5.7-8.6,0-11.9l7.4-4.3c-2.7-2.2-5.3-4.6-7.6-7.3c-3.6-4.2-0.7-9.2,6.5-11.3      c5.7-1.6,12.4-0.9,16.7,1.6c1.1,0.6,2,1.4,2.7,2.2c2.9,3.4,6.1,6,9.3,7.8c6.4,3.7,12.8,4.5,17.2,3.3c7.1-1.9,10.5-9,3.1-18.3      c-8.5-10.7-7.4-22,3.1-30.2c8.6-6.8,22.1-10.2,36.1-9.2c3.7,0.3,8.6,1,13.8,2.6l9.7-5.7      C2691.8,1568.7,2701,1568.7,2706.7,1571.9z"/>
			</g>
		</g>
		<g>
			<path fill="#FFA419" d="M2537.7,1582.7c-20-11.6-40.7-15.3-60-12.2c-7.8,1.3-15.6,2.5-23.3,3.7c19.3-3.1,39.9,0.6,60,12.2     c58.6,33.8,89.8,121.9,69.7,196.8c-13.2,49.3-45.4,80.5-82.5,86.5c7.8-1.3,15.6-2.5,23.3-3.7c37.1-6,69.3-37.2,82.5-86.5     C2627.5,1704.7,2596.3,1616.6,2537.7,1582.7z"/>
			<path fill="#FFCA41" d="M2514.4,1586.5c58.6,33.8,89.8,121.9,69.7,196.8c-20.1,74.9-83.9,108.1-142.5,74.3     c-58.6-33.8-89.8-121.9-69.7-196.8C2392,1585.9,2455.8,1552.6,2514.4,1586.5z"/>
			<path fill="#FFA419" d="M2492.9,1853c-1.5,0.1-3,0.2-4.4,0.2c-12.8,0-25.5-3.7-38-10.9c-24.7-14.3-44.8-40.4-56.6-73.6     c-12-33.8-13.7-70.5-5-103.3c12.1-45.2,43-74.4,78.6-74.4c1.5,0,3,0.1,4.5,0.2c-33.7,2.3-62.5,31-74.1,74.3     c-8.8,32.8-7,69.5,5,103.3c11.8,33.2,31.8,59.3,56.5,73.6C2470.4,1848.6,2481.6,1852.2,2492.9,1853z"/>
			<path fill="#FFD43D" d="M2567,1778.7c-11.6,43.3-40.4,72-74.1,74.3c-11.3-0.8-22.5-4.4-33.6-10.7c-24.7-14.3-44.8-40.4-56.5-73.6     c-12-33.8-13.7-70.5-5-103.3c11.6-43.3,40.4-72,74.1-74.3c11.3,0.7,22.5,4.4,33.6,10.7c24.7,14.3,44.8,40.4,56.5,73.6     C2574.1,1709.2,2575.8,1745.9,2567,1778.7z"/>
			<g>
				<path fill="#FFA419" d="M2488.5,1854.7c-13,0-26.1-3.7-38.8-11.1c-25-14.4-45.4-40.9-57.2-74.4c-12.1-34.1-13.9-71.1-5-104.2      c12.3-45.9,43.8-75.6,80.1-75.6c13,0,26.1,3.7,38.8,11.1c25,14.4,45.4,40.9,57.3,74.4c12.1,34.1,13.8,71.2,5,104.2      C2556.2,1825,2524.8,1854.7,2488.5,1854.7L2488.5,1854.7C2488.5,1854.7,2488.5,1854.7,2488.5,1854.7z M2467.5,1592.4      c-34.9,0-65.1,28.8-77.1,73.3c-8.7,32.5-7,68.9,4.9,102.4c11.6,32.9,31.5,58.7,55.9,72.8c12.3,7.1,24.8,10.7,37.3,10.7      c0,0,0,0,0,0l0,0c34.9,0,65.1-28.8,77-73.3c8.7-32.5,7-68.8-4.9-102.4c-11.6-32.9-31.5-58.7-55.9-72.8      C2492.5,1596,2480,1592.4,2467.5,1592.4z"/>
			</g>
			<g>
				<g>
					<path fill="#FFA419" d="M2465.7,1804.4c-1.3,4.9-4.5,8.1-8.3,8.7l5.8-0.9c3.7-0.6,6.9-3.7,8.3-8.7l3.1-11.7l-5.8,0.9       L2465.7,1804.4z"/>
					<path fill="#FFA419" d="M2471.3,1763.1l5.8-0.9c-2.4,0.4-5.5-0.3-9.1-2.3c-3.3-1.9-7-5-11.1-9.6c-1-1.1-2.1-2-3.2-2.7       c-2-1.1-4-1.5-6-1.2l-5.8,0.9c2-0.3,4.1,0.1,6,1.2c1.1,0.6,2.2,1.5,3.2,2.7c4,4.6,7.8,7.7,11.1,9.6       C2465.8,1762.8,2468.9,1763.5,2471.3,1763.1z"/>
					<path fill="#FFA419" d="M2483.2,1648l5.8-0.9c-3.1-0.5-5.8-0.4-8-0.1l-5.8,0.9C2477.4,1647.6,2480.1,1647.5,2483.2,1648z"/>
					<path fill="#FFA419" d="M2480.1,1684.2c0.3-1.9,1.3-6.3,4.8-7.4c0.3-0.1,0.6-0.2,0.9-0.2l-5.8,0.9c-0.3,0-0.6,0.1-0.9,0.2       c-3.6,1.1-4.6,5.6-4.8,7.4c-1,6.9,1.9,15.1,7.6,22c21.9,26.5,22.6,57,11.9,73.4c-4.1,6.4-10.3,10.9-17.7,12.1l5.8-0.9       c7.4-1.2,13.6-5.7,17.7-12c10.7-16.5,10-47-11.9-73.4C2482,1699.3,2479.1,1691.1,2480.1,1684.2z"/>
					<path fill="#FFA419" d="M2521.2,1671.4c-3.8-5.1-7.4-9.1-10.9-12.4l3.4-12.6c2-7.5-1.1-16.3-7-19.7c-2-1.2-4.1-1.5-6-1.2       l-5.8,0.9c1.9-0.3,4,0.1,6,1.2c5.9,3.4,9,12.2,7,19.7l-3.4,12.6c3.5,3.3,7.1,7.3,10.9,12.4c4.6,6.1,4.9,15.5,0.7,21       c-1.6,2.1-3.7,3.4-5.9,3.7l5.8-0.9c2.2-0.3,4.3-1.6,5.9-3.7C2526.1,1686.9,2525.8,1677.5,2521.2,1671.4z"/>
				</g>
				<path fill="#FFDF64" d="M2500.9,1627.6c5.9,3.4,9,12.2,7,19.7l-3.4,12.6c3.5,3.3,7.1,7.3,10.9,12.4c4.6,6.1,4.9,15.5,0.7,21      c-3.1,4.1-7.8,4.9-11.9,2.5c-1.4-0.8-2.8-2-3.9-3.6c-4.6-6.2-9.2-10.6-13.3-13c-3-1.7-5.6-2.3-7.8-1.6c-3.6,1.1-4.6,5.6-4.8,7.4      c-1,6.9,1.9,15.1,7.6,22c21.9,26.5,22.6,57,11.9,73.4c-5.4,8.4-14.2,13.4-24.9,12.2l-3.1,11.7c-2,7.5-8.4,10.8-14.3,7.4      c-5.9-3.4-9-12.2-7-19.7l2.6-9.8c-3.2-2.6-6.3-5.7-9.6-9.4c-4.9-5.6-5.8-15-2.1-21.1c3-4.8,8.1-6,12.5-3.4      c1.1,0.6,2.2,1.5,3.2,2.7c4,4.6,7.8,7.7,11.1,9.6c6.6,3.8,11.6,2.8,13.9-0.8c3.8-5.8,2.1-18.9-8.5-31.6      c-12.2-14.6-17.9-33.8-15.5-51.3c2-14.4,9.4-25.1,19.8-28.3c2.7-0.9,6.6-1.5,11.2-0.7l3.5-12.9      C2488.6,1627.6,2495,1624.3,2500.9,1627.6z"/>
			</g>
		</g>
	</g>
	<g>
		<path fill="#F6E7E0" d="M2612.8,968.8c-28,16.1-73.3,16.1-101.3,0c-28-16.1-28-42.3,0-58.5c28-16.2,73.3-16.2,101.3,0    C2640.8,926.4,2640.8,952.6,2612.8,968.8z"/>
		<path fill="#FFDA85" d="M2637.6,859.3c0,0.2,0,0.3,0,0.5c-0.2,11-7.6,21.9-22.1,30.3c-9.3,5.3-20.3,9-32.1,11    c-13.8,2.3-28.6,2.3-42.4,0c-11.8-2-22.8-5.6-32.1-11c-14.5-8.4-21.9-19.3-22.1-30.3c0-0.2,0-0.3,0-0.5c0-11.1,7.4-22.3,22.1-30.8    c29.4-17,77.2-17,106.6,0C2630.3,837,2637.6,848.2,2637.6,859.3z"/>
		<path fill="#FF7456" d="M2627.5,859.3c0,0.1,0,0.2,0,0.4c0,1.7-0.3,3.5-0.8,5.1c-2.1,7.1-8.1,13.7-17.4,19.1    c-7.8,4.5-17.5,7.8-28.2,9.6c-6.1,1-12.5,1.6-18.9,1.6c-6.4,0-12.7-0.5-18.9-1.6c-10.6-1.8-20.4-5.1-28.2-9.6    c-9.3-5.4-15.3-12-17.4-19.1c-0.5-1.7-0.8-3.4-0.8-5.1c0-0.1,0-0.3,0-0.4c0-9.1,6.5-17.8,18.2-24.6c12.5-7.2,29.2-11.2,47-11.2    c17.8,0,34.5,4,47,11.2C2621,841.5,2627.5,850.2,2627.5,859.3z"/>
		<path fill="#FF9F62" d="M2637.6,859.8c-0.2,27.9-12.8,82-41.3,93.3c-19.7,9.5-48.5,9.5-68.2,0c-28.5-11.3-41.2-65.4-41.3-93.3    c0.2,11,7.6,21.9,22.1,30.3c9.3,5.3,20.3,9,32.1,11c13.8,2.3,28.6,2.3,42.4,0c11.8-2,22.8-5.6,32.1-11    C2630,881.7,2637.4,870.8,2637.6,859.8z"/>
		<path fill="#DAAA94" d="M2561.5,881.9c-92.4-90.5-78.9-198.1-74.2-213.6c4.7-15.5,58,19.4,74.7,66c23.2,64.7,7.6,132.1,7.3,139.5    C2568.8,881.2,2561.5,881.9,2561.5,881.9z"/>
		<path fill="#C99B83" d="M2565,876.5c90.9-80,45.8-179.9,40.8-186.8c-5.1-7-41.4,28.2-52.1,77.7c-12.4,57.5,5.4,106.8,5.4,106.8    L2565,876.5z"/>
		<path fill="#DAAA94" d="M2561.5,881.9c98.7-10.5,116.9-103.7,111.4-148.8c-1.1-8.8-45.4,18.1-71,53.6    c-25.6,35.5-38.1,69.5-40.4,84.7C2563.2,876.7,2561.5,881.9,2561.5,881.9z"/>
		<path fill="#ECB79F" d="M2561.5,881.9c-108-10.9-122.7-94.4-126.2-127.4c-0.9-8.9,44,0.8,72.3,33c35.7,40.8,51.7,78.5,54,83.9    C2562.6,874.4,2561.5,881.9,2561.5,881.9z"/>
		<path fill="#C99B83" d="M2456,774.4c0,0,0.3,0.4,0.8,1.2c0.5,0.8,1.2,2,2.2,3.4c0.5,0.7,1,1.5,1.6,2.4c0.6,0.8,1.3,1.8,2,2.7    c0.7,1,1.5,2,2.4,3c0.8,1.1,1.8,2.1,2.7,3.3c0.9,1.1,2,2.3,3,3.5c1.1,1.2,2.2,2.4,3.3,3.7c2.3,2.5,4.8,5.1,7.4,7.6    c1.3,1.3,2.7,2.6,4,3.9c0.7,0.7,1.4,1.3,2.1,2c0.7,0.7,1.4,1.3,2.1,2c2.9,2.6,5.8,5.3,8.8,7.9c2.9,2.7,5.9,5.2,8.9,7.8    c3,2.6,5.9,5.1,8.7,7.5c2.8,2.4,5.5,4.8,8.1,7.1c2.6,2.3,5,4.5,7.2,6.5c2.2,2,4.2,4,5.9,5.7c1.7,1.7,3.2,3.3,4.4,4.6    c0.6,0.6,1.1,1.3,1.5,1.8c0.4,0.5,0.8,1,1.1,1.3c0.6,0.7,0.9,1.1,0.9,1.1s-0.4-0.3-1.1-0.9c-0.7-0.6-1.8-1.4-3.2-2.5    c-1.4-1.1-3.1-2.3-5.1-3.7c-2-1.4-4.2-3-6.6-4.8c-4.8-3.5-10.5-7.6-16.4-12.2c-1.5-1.1-3-2.3-4.5-3.5c-0.8-0.6-1.5-1.2-2.3-1.8    c-0.8-0.6-1.5-1.2-2.3-1.9c-3.1-2.5-6.1-5.1-9.1-7.8c-3-2.7-5.9-5.4-8.8-8.2c-1.4-1.4-2.8-2.8-4.1-4.2c-1.3-1.4-2.7-2.8-3.9-4.2    c-2.6-2.8-4.9-5.6-7-8.4c-1.1-1.4-2.1-2.7-3-4.1c-0.9-1.4-1.8-2.6-2.7-3.9c-0.8-1.3-1.6-2.5-2.3-3.7c-0.7-1.2-1.4-2.3-1.9-3.4    c-0.6-1.1-1.1-2.1-1.6-3.1c-0.5-1-0.8-1.9-1.2-2.7c-0.8-1.6-1.2-2.9-1.5-3.8C2456.1,774.8,2456,774.4,2456,774.4z"/>
		<path fill="#C99B83" d="M2506.6,693.1c0,0,0.4,0.5,1.2,1.5c0.4,0.5,0.9,1.1,1.4,1.9c0.5,0.7,1.1,1.6,1.8,2.6c0.3,0.5,0.7,1,1,1.6    c0.3,0.6,0.7,1.2,1.1,1.8c0.7,1.2,1.6,2.6,2.3,4.1c0.4,0.7,0.8,1.5,1.2,2.3c0.4,0.8,0.8,1.6,1.2,2.4c0.4,0.8,0.8,1.7,1.2,2.6    c0.4,0.9,0.9,1.8,1.3,2.7c1.7,3.7,3.4,7.8,5,12.2c0.8,2.2,1.7,4.5,2.5,6.8c0.4,1.2,0.8,2.3,1.2,3.5c0.4,1.2,0.8,2.4,1.2,3.6    c0.8,2.4,1.6,4.9,2.3,7.4c0.8,2.5,1.5,5.1,2.2,7.6c0.7,2.6,1.4,5.2,2.1,7.8c0.7,2.6,1.4,5.3,2,7.9c1.3,5.3,2.5,10.6,3.6,15.8    c1.2,5.2,2.2,10.4,3.2,15.4c1.9,10,3.6,19.3,4.9,27.4c0.6,4,1.2,7.7,1.8,10.9c0.3,1.6,0.5,3.2,0.8,4.6c0.2,1.4,0.5,2.7,0.7,3.9    c0.2,1.2,0.4,2.2,0.6,3.1c0.2,0.9,0.4,1.7,0.5,2.3c0.1,0.6,0.3,1.1,0.4,1.4c0.1,0.3,0.1,0.5,0.1,0.5s-0.1-0.2-0.2-0.4    c-0.1-0.3-0.4-0.7-0.6-1.3c-0.5-1.2-1.2-2.9-1.9-5.2c-0.7-2.3-1.6-5-2.5-8.2c-0.9-3.2-1.9-6.8-2.9-10.7c-2-7.9-4.3-17.1-6.6-27    c-1.2-4.9-2.4-10-3.6-15.2c-1.2-5.2-2.5-10.4-3.8-15.7c-1.3-5.2-2.6-10.5-3.9-15.6c-0.7-2.6-1.3-5.1-2-7.6c-0.7-2.5-1.3-5-2-7.4    c-0.3-1.2-0.7-2.4-1-3.6c-0.3-1.2-0.7-2.4-1-3.5c-0.3-1.2-0.7-2.3-1-3.5c-0.3-1.1-0.7-2.3-1-3.4c-1.3-4.4-2.7-8.6-4-12.4    c-1.3-3.8-2.6-7.3-3.9-10.3c-0.6-1.5-1.3-2.9-1.8-4.2c-0.3-0.7-0.6-1.3-0.8-1.9c-0.3-0.6-0.6-1.1-0.8-1.7c-0.5-1.1-1-2-1.4-2.8    c-0.4-0.8-0.8-1.5-1.1-2.1C2506.9,693.7,2506.6,693.1,2506.6,693.1z"/>
		<path fill="#C99B83" d="M2661.6,746.8c0,0-0.1,0.6-0.3,1.7c-0.1,0.5-0.2,1.2-0.3,2c-0.1,0.8-0.3,1.7-0.6,2.7    c-0.3,1-0.5,2.1-0.8,3.3c-0.4,1.2-0.8,2.5-1.2,3.9c-0.5,1.4-1,2.8-1.6,4.3c-0.3,0.8-0.6,1.5-1,2.3c-0.3,0.8-0.7,1.6-1.1,2.4    c-0.7,1.6-1.6,3.3-2.5,5c-0.9,1.7-1.9,3.4-2.9,5.2c-2.1,3.5-4.4,7.2-6.9,10.8c-1.2,1.8-2.6,3.7-4,5.5c-1.4,1.8-2.8,3.7-4.2,5.5    c-2.9,3.6-5.9,7.3-9.1,10.8c-3.1,3.5-6.3,7-9.5,10.4c-1.6,1.7-3.2,3.4-4.7,5c-1.6,1.6-3.1,3.2-4.7,4.8c-3.1,3.1-6.1,6.1-8.9,9    c-2.8,2.8-5.5,5.6-7.9,8.1c-1.2,1.3-2.4,2.5-3.5,3.6c-0.5,0.6-1.1,1.1-1.6,1.7c-0.5,0.6-1,1.1-1.5,1.6c-0.5,0.5-0.9,1-1.4,1.5    c-0.4,0.5-0.8,1-1.2,1.5c-0.8,0.9-1.5,1.8-2.1,2.6c-0.6,0.8-1.1,1.6-1.6,2.2c-0.2,0.3-0.4,0.6-0.6,0.9c-0.2,0.3-0.3,0.5-0.5,0.8    c-0.6,0.9-0.9,1.4-0.9,1.4s0.2-0.6,0.6-1.6c0.1-0.3,0.2-0.6,0.3-0.9c0.1-0.3,0.3-0.6,0.5-1c0.3-0.7,0.7-1.6,1.2-2.5    c0.5-0.9,1-1.9,1.7-3c0.6-1.1,1.4-2.2,2.2-3.4c1.6-2.4,3.5-5,5.7-7.8c2.2-2.8,4.6-5.7,7.3-8.8c2.6-3.1,5.4-6.3,8.4-9.6    c2.9-3.3,6-6.6,9-10.1c3.1-3.4,6.2-6.9,9.3-10.4c3.1-3.5,6.1-7,9.1-10.5c0.7-0.9,1.4-1.8,2.2-2.6c0.7-0.9,1.4-1.7,2.1-2.6    c1.4-1.8,2.8-3.5,4.1-5.2c2.7-3.4,5.1-6.8,7.4-10.1c1.1-1.6,2.2-3.3,3.2-4.8c1-1.6,1.9-3.1,2.8-4.6c0.9-1.5,1.7-2.9,2.5-4.3    c0.7-1.4,1.5-2.7,2.1-4c0.6-1.3,1.1-2.5,1.7-3.6c0.5-1.1,0.9-2.2,1.3-3.1c0.8-1.9,1.3-3.4,1.7-4.5    C2661.4,747.3,2661.6,746.8,2661.6,746.8z"/>
		<path fill="#DAAA94" d="M2596.9,724.6c0,0-0.2,0.5-0.7,1.5c-0.2,0.5-0.5,1.1-0.8,1.8c-0.3,0.7-0.6,1.5-1,2.4    c-0.7,1.8-1.4,4.1-2.2,6.7c-0.8,2.6-1.6,5.6-2.4,8.8c-0.4,1.6-0.8,3.3-1.2,5.1c-0.4,1.8-0.8,3.6-1.2,5.5    c-0.8,3.8-1.6,7.7-2.5,11.9c-0.8,4.1-1.6,8.4-2.5,12.7c-0.8,4.4-1.6,8.8-2.5,13.2c-0.8,4.4-1.7,8.8-2.5,13.2    c-0.4,2.2-0.8,4.3-1.3,6.5c-0.4,2.1-0.8,4.2-1.3,6.3c-1.7,8.3-3.4,16-5,22.6c-0.4,1.6-0.8,3.2-1.2,4.7c-0.4,1.5-0.8,2.9-1.2,4.2    c-0.8,2.7-1.5,5-2.2,6.8c-0.7,1.9-1.3,3.3-1.7,4.3c-0.5,0.9-0.7,1.5-0.7,1.5s0.1-0.5,0.4-1.6c0.3-1,0.6-2.5,0.9-4.5    c0.4-1.9,0.7-4.3,1.1-7c0.4-2.7,0.8-5.8,1.3-9.1c0.5-3.3,1-7,1.5-10.8c0.5-3.8,1.1-7.9,1.7-12.1c0.3-2.1,0.6-4.2,1-6.4    c0.3-2.2,0.7-4.3,1.1-6.5c0.7-4.4,1.5-8.8,2.3-13.3c0.4-2.2,0.9-4.4,1.3-6.7c0.4-2.2,0.9-4.4,1.4-6.6c0.5-2.2,0.9-4.3,1.5-6.5    c0.3-1.1,0.5-2.1,0.7-3.2c0.3-1,0.5-2.1,0.8-3.1c1-4.1,2.1-8.1,3.3-11.8c0.6-1.9,1.1-3.7,1.7-5.4c0.6-1.7,1.2-3.4,1.8-5    c1.2-3.2,2.4-6.1,3.5-8.6c1.1-2.5,2.3-4.7,3.3-6.4c0.5-0.9,1-1.6,1.4-2.3c0.4-0.7,0.8-1.2,1.1-1.6    C2596.6,725.1,2596.9,724.6,2596.9,724.6z"/>
	</g>
	<g>
		<path fill="#F6E7E0" d="M696.4,1935.2c-17.5,10.1-17.6,26.7-0.2,36.8l485.9,282.4c17.4,10.1,46,10.1,63.5,0l854.4-493.3    c17.5-10.1,17.6-26.7,0.2-36.8l-485.9-282.4c-17.4-10.1-46-10.1-63.5,0L696.4,1935.2z"/>
		<path fill="#C95D4B" d="M724.5,1917.9l459.7,267.1c16.5,9.6,43.5,9.6,60.1,0l808.4-466.7c8.3-4.8,12.5-11.2,12.5-17.5    c0.1,17.3,0.1,21.9,0.2,39.2c0,6.3-4.2,12.7-12.5,17.5l-808.4,466.7c-16.6,9.6-43.6,9.6-60.1,0l-459.7-267.2    c-8.2-4.8-12.3-11-12.3-17.3c0-17.3-0.1-21.9-0.1-39.2C712.3,1906.9,716.3,1913.1,724.5,1917.9z"/>
		<path fill="#FBF1EC" d="M724.7,1883.1c-16.6,9.6-16.7,25.2-0.2,34.8l459.7,267.1c16.5,9.6,43.5,9.6,60.1,0l808.4-466.7    c16.6-9.6,16.7-25.2,0.2-34.8l-459.7-267.2c-16.5-9.6-43.5-9.6-60.1,0L724.7,1883.1z"/>
		<path fill="#C95D4B" d="M520,1215.9l808.4-466.7c5.7-3.3,11.5-4.3,17-3.4c11.2,1.8,22.5,3.6,33.7,5.4c-5.5-0.9-11.3,0.2-17,3.4    l-808.4,466.7c-16.6,9.6-25.5,34.7-19.8,55.9l158.6,591c3.7,13.9,12.9,22.8,23.5,24.5c-11.2-1.8-22.5-3.6-33.7-5.4    c-10.6-1.7-19.8-10.6-23.5-24.5l-158.6-591C494.5,1250.6,503.4,1225.4,520,1215.9z"/>
		<path fill="#E3D1B6" d="M553.7,1221.3c-16.6,9.6-25.5,34.7-19.8,55.9l158.6,591c5.7,21.2,23.9,30.7,40.5,21.1l808.4-466.7    c16.6-9.6,25.5-34.7,19.8-55.9l-158.6-591c-5.7-21.2-23.9-30.7-40.5-21.1L553.7,1221.3z"/>
		<path fill="#FBF1EC" d="M1524.5,1393.1c2.1-1.5,6-10.1,4-17.6l-157.5-586.7l-800.2,462c-2.4,1.8-5.9,10.5-4,17.6l157.5,586.7    L1524.5,1393.1z"/>
		<g>
			<polygon fill="#DA6A58" points="1541.3,1517.3 1573.8,1498.5 1541.3,1479.8 1508.9,1498.5    "/>
			<polygon fill="#DA6A58" points="1494.3,1544.4 1526.8,1525.7 1494.3,1506.9 1461.9,1525.7    "/>
			<polygon fill="#DA6A58" points="1447.4,1571.5 1479.8,1552.8 1447.4,1534.1 1414.9,1552.8    "/>
			<polygon fill="#DA6A58" points="1400.4,1598.6 1432.8,1579.9 1400.4,1561.2 1368,1579.9    "/>
			<polygon fill="#DA6A58" points="1353.4,1625.8 1385.8,1607 1353.4,1588.3 1321,1607    "/>
			<polygon fill="#DA6A58" points="1306.4,1652.9 1338.8,1634.2 1306.4,1615.5 1274,1634.2    "/>
			<polygon fill="#DA6A58" points="1259.4,1680 1291.8,1661.3 1259.4,1642.6 1227,1661.3    "/>
			<polygon fill="#DA6A58" points="1212.4,1707.1 1244.9,1688.4 1212.4,1669.7 1180,1688.4    "/>
			<polygon fill="#DA6A58" points="1165.4,1734.3 1197.9,1715.6 1165.4,1696.8 1133,1715.6    "/>
			<polygon fill="#DA6A58" points="1118.5,1761.4 1150.9,1742.7 1118.5,1724 1086,1742.7    "/>
			<polygon fill="#DA6A58" points="1071.5,1788.5 1103.9,1769.8 1071.5,1751.1 1039.1,1769.8    "/>
			<polygon fill="#DA6A58" points="1024.5,1815.7 1056.9,1796.9 1024.5,1778.2 992.1,1796.9    "/>
			<polygon fill="#DA6A58" points="977.5,1842.8 1009.9,1824.1 977.5,1805.3 945.1,1824.1    "/>
			<polygon fill="#DA6A58" points="930.5,1869.9 962.9,1851.2 930.5,1832.5 898.1,1851.2    "/>
			<polygon fill="#DA6A58" points="1555.1,1562.7 1587.5,1543.9 1555.1,1525.2 1522.7,1543.9    "/>
			<polygon fill="#DA6A58" points="1508.1,1589.8 1540.5,1571.1 1508.1,1552.4 1475.7,1571.1    "/>
			<polygon fill="#DA6A58" points="1461.1,1616.9 1493.5,1598.2 1461.1,1579.5 1428.7,1598.2    "/>
			<polygon fill="#DA6A58" points="1414.1,1644 1446.6,1625.3 1414.1,1606.6 1381.7,1625.3    "/>
			<polygon fill="#DA6A58" points="1367.2,1671.2 1399.6,1652.4 1367.2,1633.7 1334.7,1652.4    "/>
			<polygon fill="#DA6A58" points="1320.2,1698.3 1352.6,1679.6 1320.2,1660.9 1287.7,1679.6    "/>
			<polygon fill="#DA6A58" points="1273.2,1725.4 1305.6,1706.7 1273.2,1688 1240.8,1706.7    "/>
			<polygon fill="#DA6A58" points="1226.2,1752.6 1258.6,1733.8 1226.2,1715.1 1193.8,1733.8    "/>
			<polygon fill="#DA6A58" points="1179.2,1779.7 1211.6,1761 1179.2,1742.2 1146.8,1761    "/>
			<polygon fill="#DA6A58" points="1132.2,1806.8 1164.6,1788.1 1132.2,1769.4 1099.8,1788.1    "/>
			<polygon fill="#DA6A58" points="1085.2,1833.9 1117.7,1815.2 1085.2,1796.5 1052.8,1815.2    "/>
			<polygon fill="#DA6A58" points="1038.3,1861.1 1070.7,1842.3 1038.3,1823.6 1005.8,1842.3    "/>
			<polygon fill="#DA6A58" points="991.3,1888.2 1023.7,1869.5 991.3,1850.8 958.8,1869.5    "/>
			<polygon fill="#DA6A58" points="944.3,1915.3 976.7,1896.6 944.3,1877.9 911.9,1896.6    "/>
			<polygon fill="#DA6A58" points="1586.8,1597.7 1619.2,1579 1586.8,1560.3 1554.3,1579    "/>
			<polygon fill="#DA6A58" points="1539.8,1624.9 1572.2,1606.1 1539.8,1587.4 1507.3,1606.1    "/>
			<polygon fill="#DA6A58" points="1492.8,1652 1525.2,1633.3 1492.8,1614.5 1460.4,1633.3    "/>
			<polygon fill="#DA6A58" points="1445.8,1679.1 1478.2,1660.4 1445.8,1641.7 1413.4,1660.4    "/>
			<polygon fill="#DA6A58" points="1398.8,1706.2 1431.2,1687.5 1398.8,1668.8 1366.4,1687.5    "/>
			<polygon fill="#DA6A58" points="1351.8,1733.4 1384.2,1714.6 1351.8,1695.9 1319.4,1714.6    "/>
			<polygon fill="#DA6A58" points="1304.8,1760.5 1337.3,1741.8 1304.8,1723.1 1272.4,1741.8    "/>
			<polygon fill="#DA6A58" points="1257.9,1787.6 1290.3,1768.9 1257.9,1750.2 1225.4,1768.9    "/>
			<polygon fill="#DA6A58" points="1210.9,1814.7 1243.3,1796 1210.9,1777.3 1178.4,1796    "/>
			<polygon fill="#DA6A58" points="1163.9,1841.9 1196.3,1823.2 1163.9,1804.4 1131.5,1823.2    "/>
			<polygon fill="#DA6A58" points="1116.9,1869 1149.3,1850.3 1116.9,1831.6 1084.5,1850.3    "/>
			<polygon fill="#DA6A58" points="1069.9,1896.1 1102.3,1877.4 1069.9,1858.7 1037.5,1877.4    "/>
			<polygon fill="#DA6A58" points="1022.9,1923.3 1055.3,1904.5 1022.9,1885.8 990.5,1904.5    "/>
			<polygon fill="#DA6A58" points="1647.5,1616 1679.9,1597.3 1647.5,1578.6 1615.1,1597.3    "/>
			<polygon fill="#DA6A58" points="1600.5,1643.1 1632.9,1624.4 1600.5,1605.7 1568.1,1624.4    "/>
			<polygon fill="#DA6A58" points="1553.5,1670.3 1586,1651.5 1553.5,1632.8 1521.1,1651.5    "/>
			<polygon fill="#DA6A58" points="1506.5,1697.4 1539,1678.7 1506.5,1660 1474.1,1678.7    "/>
			<polygon fill="#DA6A58" points="1459.6,1724.5 1492,1705.8 1459.6,1687.1 1427.1,1705.8    "/>
			<polygon fill="#DA6A58" points="1412.6,1751.6 1445,1732.9 1412.6,1714.2 1380.1,1732.9    "/>
			<polygon fill="#DA6A58" points="1365.6,1778.8 1398,1760.1 1365.6,1741.3 1333.2,1760.1    "/>
			<polygon fill="#DA6A58" points="1318.6,1805.9 1351,1787.2 1318.6,1768.5 1286.2,1787.2    "/>
			<polygon fill="#DA6A58" points="1271.6,1833 1304,1814.3 1271.6,1795.6 1239.2,1814.3    "/>
			<polygon fill="#DA6A58" points="1224.6,1860.2 1257.1,1841.4 1224.6,1822.7 1192.2,1841.4    "/>
			<polygon fill="#DA6A58" points="1177.6,1887.3 1210.1,1868.6 1177.6,1849.8 1145.2,1868.6    "/>
			<polygon fill="#DA6A58" points="1130.7,1914.4 1163.1,1895.7 1130.7,1877 1098.2,1895.7    "/>
			<polygon fill="#DA6A58" points="1083.7,1941.5 1116.1,1922.8 1083.7,1904.1 1051.2,1922.8    "/>
			<polygon fill="#DA6A58" points="1036.7,1968.7 1069.1,1949.9 1036.7,1931.2 1004.3,1949.9    "/>
			<polygon fill="#DA6A58" points="1679.2,1651.1 1711.6,1632.4 1679.2,1613.6 1646.7,1632.4    "/>
			<polygon fill="#DA6A58" points="1632.2,1678.2 1664.6,1659.5 1632.2,1640.8 1599.7,1659.5    "/>
			<polygon fill="#DA6A58" points="1585.2,1705.3 1617.6,1686.6 1585.2,1667.9 1552.8,1686.6    "/>
			<polygon fill="#DA6A58" points="1538.2,1732.5 1570.6,1713.7 1538.2,1695 1505.8,1713.7    "/>
			<polygon fill="#DA6A58" points="1491.2,1759.6 1523.6,1740.9 1491.2,1722.1 1458.8,1740.9    "/>
			<polygon fill="#DA6A58" points="1444.2,1786.7 1476.6,1768 1444.2,1749.3 1411.8,1768    "/>
			<polygon fill="#DA6A58" points="1397.2,1813.8 1429.7,1795.1 1397.2,1776.4 1364.8,1795.1    "/>
			<polygon fill="#DA6A58" points="1350.3,1841 1382.7,1822.3 1350.3,1803.5 1317.8,1822.3    "/>
			<polygon fill="#DA6A58" points="1303.3,1868.1 1335.7,1849.4 1303.3,1830.7 1270.8,1849.4    "/>
			<polygon fill="#DA6A58" points="1256.3,1895.2 1288.7,1876.5 1256.3,1857.8 1223.9,1876.5    "/>
			<polygon fill="#DA6A58" points="1209.3,1922.4 1241.7,1903.6 1209.3,1884.9 1176.9,1903.6    "/>
			<polygon fill="#DA6A58" points="1162.3,1949.5 1194.7,1930.8 1162.3,1912 1129.9,1930.8    "/>
			<polygon fill="#DA6A58" points="1115.3,1976.6 1147.7,1957.9 1115.3,1939.2 1082.9,1957.9    "/>
			<polygon fill="#DA6A58" points="1580.3,1457.3 1554.3,1472.3 1586.8,1491 1612.7,1476.1    "/>
			<polygon fill="#DA6A58" points="1626.5,1484 1567,1518.3 1599.4,1537.1 1658.9,1502.7    "/>
			<polygon fill="#DA6A58" points="1672.7,1510.7 1601.3,1551.9 1633.7,1570.6 1705.1,1529.4    "/>
			<polygon fill="#DA6A58" points="1718.9,1537.4 1659.4,1571.7 1691.8,1590.4 1751.3,1556.1    "/>
			<polygon fill="#DA6A58" points="1765.1,1564 1693.7,1605.2 1726.1,1624 1797.5,1582.8    "/>
			<polygon fill="#DA6A58" points="1084.9,1971.7 1072,1964.2 1042.8,1981.1 1055.7,1988.5    "/>
			<polygon fill="#DA6A58" points="1104.4,1982.9 1091.4,1975.4 1062.2,1992.3 1075.2,1999.8    "/>
			<polygon fill="#DA6A58" points="985.8,1998 1023.7,1976.2 991.2,1957.5 953.4,1979.3    "/>
			<polygon fill="#DA6A58" points="939.6,1971.4 1011,1930.2 978.5,1911.4 907.2,1952.6    "/>
			<polygon fill="#DA6A58" points="893.4,1944.7 931.3,1922.8 898.8,1904.1 861,1926    "/>
			<polygon fill="#DA6A58" points="847.2,1918 918.6,1876.8 886.1,1858.1 814.8,1899.3    "/>
			<polygon fill="#DA6A58" points="1032,1987.3 999.6,2006 1032,2024.7 1064.4,2006    "/>
		</g>
		<polygon fill="#DA6A58" points="1496.5,1990 1763.2,1836 1594.9,1738.9 1328.2,1892.9   "/>
		<path fill="#FFFFFF" d="M724.7,1883.1c0,0-0.3,0.2-1,0.6c-0.6,0.5-1.7,1-2.8,2c-2.3,1.8-6.1,5-7.9,10.6c-0.9,2.8-0.9,6.3,0.4,9.6    c1.3,3.4,3.9,6.5,7.3,9.1c3.4,2.6,7.5,4.7,11.8,7.2c4.3,2.5,8.8,5.1,13.6,7.8c38.3,22.1,93,53.7,158.7,91.5    c65.6,38,142.1,82.3,224.1,129.8c10.2,5.9,20.6,11.9,31,18c5.2,3,10.4,6,15.7,9.1c5.3,2.9,10.4,6.4,15.9,8.5    c11.2,4.1,23.7,4.9,35.5,2.7c5.9-1.1,11.7-3,17-6c5.4-3.1,10.7-6.2,16.1-9.3c43-24.9,86.8-50.3,130.5-75.6    c175.2-100.8,350.4-201.7,481.7-277.3c65.8-37.7,120.6-69.1,158.9-91.1c4.8-2.7,9.3-5.3,13.6-7.8c4.2-2.5,8.4-4.6,11.8-7.1    c3.4-2.6,6-5.7,7.4-9.1c1.4-3.3,1.4-6.8,0.6-9.6c-1.7-5.7-5.5-8.9-7.8-10.7c-1.2-1-2.2-1.5-2.8-2c-0.7-0.4-1-0.6-1-0.6    s0.3,0.2,1,0.6c0.6,0.4,1.7,1,2.9,2c2.3,1.8,6.1,5,7.9,10.7c0.9,2.8,0.8,6.3-0.5,9.7c-1.4,3.4-4,6.6-7.4,9.2    c-3.4,2.6-7.6,4.7-11.8,7.3c-4.3,2.5-8.8,5.1-13.5,7.9c-38.2,22.2-92.8,54-158.3,92.1c-131.2,76-306.1,177.3-481,278.6    c-43.8,25.2-87.6,50.4-130.7,75.2c-5.4,3.1-10.8,6.2-16.1,9.3c-5.5,3.2-11.7,5.1-17.8,6.3c-12.4,2.2-25.2,1.3-36.9-3    c-6-2.3-10.9-5.8-16.2-8.7c-5.2-3.1-10.4-6.1-15.6-9.1c-10.4-6.1-20.7-12.1-30.9-18c-81.9-47.7-158.3-92.2-223.7-130.4    c-65.4-38.3-119.9-70.2-158.1-92.5c-4.8-2.8-9.3-5.4-13.5-7.9c-4.2-2.5-8.3-4.7-11.8-7.3c-3.4-2.6-6-5.9-7.3-9.3    c-1.3-3.4-1.3-6.9-0.4-9.8c1.9-5.7,5.7-8.8,8-10.6c1.2-1,2.2-1.5,2.9-1.9C724.4,1883.3,724.7,1883.1,724.7,1883.1z"/>
	</g>
	<g>
		<g>
			<g>
				<polygon fill="#FFB950" points="786.2,1724.9 757,1741.8 740.3,1679.5 769.5,1662.7     "/>
			</g>
			<g>
				<polygon fill="#FFB950" points="881.9,1669.7 852.7,1686.5 821.5,1570.4 850.8,1553.5     "/>
			</g>
			<g>
				<polygon fill="#FFB950" points="977.6,1614.4 948.3,1631.3 901.9,1458 931.1,1441.1     "/>
			</g>
			<g>
				<polygon fill="#FFB950" points="1073.2,1559.2 1044,1576.1 1005,1430.5 1034.2,1413.7     "/>
			</g>
			<g>
				<polygon fill="#FFB950" points="1168.9,1504 1139.7,1520.8 1080.5,1300.2 1109.8,1283.3     "/>
			</g>
			<g>
				<polygon fill="#FFB950" points="1264.6,1448.7 1235.3,1465.6 1165.7,1205.7 1194.9,1188.8     "/>
			</g>
			<g>
				<polygon fill="#FFB950" points="1360.2,1393.5 1331,1410.4 1267.5,1173.4 1296.7,1156.5     "/>
			</g>
			<g>
				<polygon fill="#FFB950" points="1455.9,1338.2 1426.7,1355.1 1338.7,1026.7 1367.9,1009.8     "/>
			</g>
		</g>
		<path fill="#FF7456" d="M742.4,1626c0,0,9-12,24.9-33.1c7.9-10.6,17.5-23.4,28.5-38.1c5.5-7.3,11.4-15.2,17.5-23.4    c3.1-4.1,6.3-8.3,9.5-12.6c1.5-2,3.2-4.4,4.7-6.7c1.5-2.3,3.1-4.6,4.6-7c12.4-19.2,24.9-40.9,39.7-62.8    c7.4-10.9,15.3-21.9,25-31.6c1.2-1.2,2.4-2.4,3.7-3.5l2-1.6l1-0.8l0.5-0.4l0.7-0.4l4-2.5c1.4-0.8,3-1.4,4.5-2.1    c6-2.5,11.8-3.9,17.6-5.1c11.7-2.2,23.5-3.3,35.3-4.8c5.9-0.8,11.8-1.6,17.7-3c5.9-1.4,11.8-2.9,17.2-5.9c1.4-0.6,2.7-1.5,3.9-2.4    l1.9-1.3l1.7-1.7c1.2-1.3,2.7-2.4,3.7-3.8l3.2-3.9c4.3-5.6,8.4-11.8,12.2-18.4c7.6-13,14.4-26.9,21.3-40.9    c6.9-14,13.5-28.1,21-41.8c3.7-6.9,7.7-13.6,12.3-20c4.4-6,8.9-12,13.5-17.8c18.3-23.4,37-45.5,57.1-64.3c2.5-2.3,5-4.7,7.7-6.7    l4-3.1l2-1.5l1-0.8l0.2-0.2l0.4-0.3l0.5-0.3l4.1-2.3l4.4-1.9c3-1.2,5.8-2,8.6-2.9c11.3-3.1,22.2-4.7,32.8-6.5    c10.6-1.8,20.8-3.6,30.5-6.6c4.8-1.7,9.6-3.3,13.9-6c2.3-1.1,4.2-2.9,6.1-4.4c0.1,0,0.4-0.3,0.2-0.2l0.4-0.4l0.7-0.8l1.4-1.5    c0.9-1,1.9-2,2.8-3.1c1.6-2.2,3.2-4.2,4.7-6.4c1.5-2.3,2.9-4.6,4.3-6.9c2.7-4.8,5.3-9.4,7.6-14.1c4.8-9.4,8.8-18.6,12.6-27.4    c7.5-17.5,13.6-33,18.9-45.7c5.3-12.7,9.6-22.6,13-29.1c1.6-3.3,3-5.7,3.9-7.4c0.9-1.7,1.4-2.5,1.4-2.5c0.3-0.6,0.9-0.8,1.4-0.5    c0.4,0.3,0.5,1,0.2,1.6l0,0.1c0,0-0.4,0.8-1.3,2.5c-0.8,1.7-2.2,4-3.7,7.3c-3.2,6.5-7.3,16.4-12.4,29.1    c-5.1,12.7-10.9,28.4-18.2,46.1c-3.6,8.9-7.6,18.3-12.3,27.9c-4.8,9.7-9.9,19.6-17.4,29.1c-0.9,1.1-1.9,2.1-2.8,3.1l-1.4,1.6    l-0.7,0.8l-0.4,0.4c-0.4,0.4-0.4,0.3-0.6,0.5c-2.2,1.8-4.5,3.8-6.9,5.1c-4.8,3-9.8,4.8-14.8,6.6c-10.1,3.3-20.5,5.2-31.1,7.2    c-10.6,2-21.4,3.8-32.3,6.9c-2.7,0.9-5.5,1.7-8,2.8l-3.8,1.7l-4.1,2.4c-2.3,1.5-4.9,3.8-7.3,5.6c-2.5,1.8-4.9,4.2-7.4,6.4    c-19.4,18.2-38,40.4-56,63.5c-4.5,5.7-9,11.7-13.4,17.8c-4.1,5.9-8,12.2-11.6,19c-7.2,13.4-13.8,27.5-20.7,41.5    c-6.8,14-13.8,28.1-21.7,41.5c-3.9,6.8-8.2,13.2-13,19.4l-3.9,4.6c-1.3,1.6-2.6,2.6-3.9,3.9l-1,0.9l-0.5,0.5l-0.2,0.2    c0.1-0.1-0.4,0.4-0.4,0.4l-2.3,1.6c-1.5,1.1-3.1,2.2-4.6,2.9c-6.3,3.4-12.5,4.9-18.6,6.3c-6.1,1.4-12.2,2.2-18.1,3    c-11.9,1.5-23.6,2.5-35,4.6c-5.7,1-11.3,2.5-16.5,4.6c-1.3,0.6-2.5,1-3.8,1.7l-4,2.5l-0.2,0.1c0,0-0.4,0.2-0.1,0l-0.4,0.4    l-0.9,0.7l-1.8,1.5c-1.2,0.9-2.3,2-3.4,3.1c-9,8.9-16.9,19.6-24.3,30.2c-14.8,21.3-27.5,42.9-40.2,62.1c-1.6,2.4-3.2,4.8-4.8,7.1    c-1.6,2.3-3.1,4.4-4.9,6.8c-3.3,4.2-6.5,8.4-9.7,12.5c-6.3,8.1-12.3,15.8-17.9,23c-11.2,14.4-21,27-29.1,37.4    c-16.1,20.7-25.3,32.6-25.3,32.6c-0.4,0.5-1,0.6-1.4,0.2C742,1627.3,742,1626.6,742.4,1626z"/>
		<g>
			<polygon fill="#FF9168" points="1247,956.3 1324.9,911.3 1335,948.9 1311.3,948.6 1253.8,981.8    "/>
		</g>
		<g>
			<polygon fill="#FF9168" points="1172.2,1090.4 1250.1,1045.4 1260.2,1083 1236.5,1082.7 1179,1115.8    "/>
		</g>
		<g>
			<polygon fill="#FF9168" points="1064,1098.8 1141.9,1053.8 1151.9,1091.4 1128.2,1091 1070.8,1124.2    "/>
		</g>
		<g>
			<polygon fill="#FF9168" points="985.9,1219.7 1063.8,1174.7 1073.9,1212.3 1050.2,1211.9 992.7,1245.1    "/>
		</g>
		<g>
			<polygon fill="#FF9168" points="906,1333.9 983.9,1288.9 994,1326.5 970.3,1326.2 912.9,1359.4    "/>
		</g>
		<g>
			<polygon fill="#FF9168" points="794.9,1343.6 872.8,1298.6 882.9,1336.2 859.2,1335.9 801.8,1369    "/>
		</g>
		<g>
			<polygon fill="#FF9168" points="718.9,1460 796.8,1415 806.8,1452.6 783.1,1452.2 725.7,1485.4    "/>
		</g>
	</g>
	<g>
		<polygon fill="#C95D4B" points="1579.3,1117.9 1868.4,950.9 1813.1,739.2 1524,906.1   "/>
		<polygon fill="#E3D1B6" points="1892.7,959.4 1603.5,1126.3 1548.2,914.5 1837.4,747.6   "/>
		<g>
			<path fill="#DA6A58" d="M1806.9,970.2c-34.4,20.1-75.3,8.8-91.1-25.1c-15.8-33.9-0.7-77.8,33.7-97.9l11.8,25.4     c-20.2,11.8-29.1,37.6-19.8,57.5c9.3,19.9,33.3,26.5,53.4,14.7c8.2-4.8,14.8-12,18.9-20.7l25.2,10.8     C1832.1,949.9,1820.9,962.1,1806.9,970.2z"/>
		</g>
		<g>
			<path fill="#FFF4CA" d="M1839.1,934.9l-25.2-10.8c5.8-12.1,6.1-25.5,0.8-36.7c-9.3-19.9-33.2-26.5-53.4-14.7l-11.8-25.4     c34.4-20.1,75.3-8.8,91.1,25.1C1849.5,891.5,1849,914.3,1839.1,934.9z"/>
		</g>
		<path fill="#FFFFFF" d="M1837.4,747.6c-11.8,7.4-23.7,14.6-35.6,21.8c-11.9,7.2-23.8,14.5-35.8,21.5l-35.9,21.4    c-11.9,7.2-23.9,14.2-36,21.2l-72.1,42.1l-72.5,41.4l1.3-3.1l6.8,26.5l6.7,26.5l13.3,53.1c4.5,17.7,8.8,35.4,13.1,53.1    c4.3,17.7,8.6,35.5,12.8,53.2c-5.1-17.5-10-35.1-14.9-52.7c-4.9-17.6-9.8-35.1-14.6-52.8l-14.4-52.8l-7.2-26.4l-7-26.4l-0.5-2    l1.8-1.1l72.1-42.1l72.5-41.4c12.1-6.9,24.2-13.8,36.3-20.6l36.4-20.4c12.1-6.8,24.3-13.5,36.5-20.2    C1812.9,760.8,1825.1,754.1,1837.4,747.6z"/>
		<g>
			<g>
				
					<rect x="1577.5" y="920.7" transform="matrix(0.8661 -0.4999 0.4999 0.8661 -243.611 938.2742)" fill="#FFF4CA" width="103.6" height="6.3"/>
			</g>
			<g>
				
					<rect x="1584.5" y="946" transform="matrix(0.8661 -0.4999 0.4999 0.8661 -255.3554 945.1601)" fill="#FFF4CA" width="103.6" height="6.3"/>
			</g>
			<g>
				
					<rect x="1591.5" y="971.4" transform="matrix(0.8661 -0.4999 0.4999 0.8661 -267.0995 952.0171)" fill="#FFF4CA" width="103.6" height="6.3"/>
			</g>
			<g>
				
					<rect x="1598.5" y="996.8" transform="matrix(0.8661 -0.4999 0.4999 0.8661 -278.8438 958.8874)" fill="#FFF4CA" width="103.6" height="6.3"/>
			</g>
			<g>
				
					<rect x="1605.5" y="1022.1" transform="matrix(0.8661 -0.4999 0.4999 0.8661 -290.5897 965.8351)" fill="#FFF4CA" width="103.6" height="6.3"/>
			</g>
		</g>
		<path fill="#F6E7E0" d="M1638.5,1308.4c9.8,5.7,30.1,3.3,44.9-5.3l229-132.2c14.9-8.6,19-20.3,9.2-25.9    c-9.8-5.7-30.1-3.3-44.9,5.3l-229,132.2C1632.8,1291.1,1628.7,1302.7,1638.5,1308.4z"/>
	</g>
	<g>
		<path fill="#FFB399" d="M2808.9,787.9c-8.3-10.5-17.4-28.7-18.5-41.9c-1.1-13.2,15.5-41.9,21.2-41.9c5.6,0,15.5,36.4,15.5,36.4    s6.3-2.6,10.9,0c4.6,2.6,0.3,27.6,0,35.2c0,0-4.9,10.9-11.6,12.2C2819.7,789.2,2808.9,787.9,2808.9,787.9z"/>
		<path fill="#FF7458" d="M2931.6,909.9c0,0-35,17.3-49.6,16.5c-12.3-0.7-29.6-19.7-33.9-29.5c-4.2-9.8-37-86.8-41.5-104.7    c5.8-15.6,31.3-18,35-15.9c3,1.7,29.7,69,47.4,79.2c4.7,0.4,27.5-19.7,42-21.4c8.2-1,27.9,4.6,27.4,26.7    C2958,882.8,2931.6,909.9,2931.6,909.9z"/>
		<path fill="#FFFFFF" d="M2806.6,792.2c0,0,0-0.7,0.2-1.9c0.1-0.6,0.1-1.3,0.5-2.1c0.3-0.8,0.7-1.8,1.2-2.7c0.6-0.9,1.2-1.9,2-2.8    c0.8-0.9,1.7-1.9,2.8-2.7c2-1.7,4.5-3.1,7.1-4.1c5.2-2.1,10.7-2.5,14.8-2c2.1,0.3,3.7,0.8,4.9,1.3c0.6,0.2,1,0.5,1.2,0.8    c0.2,0.2,0.4,0.3,0.4,0.3s-0.2,0-0.5,0c-0.3,0-0.7,0-1.3,0.1c-0.5,0.1-1.2,0.3-2,0.4c-0.7,0.2-1.6,0.4-2.5,0.6    c-0.9,0.3-1.9,0.5-2.9,0.9c-1,0.3-2.1,0.6-3.2,1c-1.1,0.3-2.2,0.8-3.3,1.1c-1.1,0.4-2.2,0.8-3.3,1.3c-1.1,0.5-2.2,0.9-3.2,1.4    c-1.1,0.5-2.1,1-3,1.5c-1,0.5-1.8,1.1-2.7,1.6c-0.9,0.5-1.6,1.1-2.4,1.6c-0.7,0.5-1.3,1.1-1.9,1.6c-0.6,0.4-1.1,1.1-1.5,1.5    C2807.1,791.7,2806.6,792.2,2806.6,792.2z"/>
		<path fill="#FAE4B9" d="M2888.3,1595.5c52.1,30.1,136.6,30.1,188.7,0c52.1-30.1,52.1-78.8,0-108.9c-52.1-30.1-136.6-30.1-188.7,0    C2836.3,1516.6,2836.3,1565.4,2888.3,1595.5z"/>
		<path fill="#4B3A1C" d="M2976.7,1466c1.4,3.9,4.8,22.2,1.7,26c-3.1,3.9-18.6,10.6-25.9,7.4c-9.5,8.1-22.4,25.6-46,29.2    c-23.7,3.6-23.3-9.1-19.8-16.2c3.5-7,42.3-50.3,48.6-54c6.3-3.6,19.7-7.6,23.9-5.9C2963.4,1454.4,2976.7,1466,2976.7,1466z"/>
		<path fill="#FAE4B9" d="M2978.4,1458.5l-1.7,7.5c0,0-12.3,4.6-24.3,2.1c-12-2.5-17.2-9.6-17.2-9.6v-4.8c0,0,20.8-8.8,28.1-6.3    C2970.8,1449.9,2978.4,1458.5,2978.4,1458.5z"/>
		<path fill="#4B3A1C" d="M3097.9,1519.9c2.7,1.6,5.2,18,3.8,22.5c-1.5,4.6-9.8,14.7-15.5,12.7c0,0-12.7,38-27.4,42.5    c-5.4,1.7-26.4,4.9-26-6.3c0.4-11.3,16.9-60.4,20.1-69.4c3.2-9,18.4-9.4,22.6-9.4C3079.5,1512.5,3097.9,1519.9,3097.9,1519.9z"/>
		<path fill="#FAE4B9" d="M3097.9,1511.1v8.8c0,0-12.5,7.7-24.4,7.4c-12-0.4-20.7-5.4-20.7-5.4v-5.8c0,0,9.3-10.9,17.8-10.3    C3079.1,1506.5,3097.9,1511.1,3097.9,1511.1z"/>
		<path fill="#7A3B2E" d="M3101.5,1506.9c-0.9,6-33.7,22.5-54.2,5.6h0c-0.9-0.7-1.7-1.5-2.5-2.3c-2.4-5.2-14.6-118.7-18.3-140.3    c-3.8-21.6-24.9-162.8-28.1-162.8c-3.3,0-9.4,126.7-9.4,138.4c0,11.7-5.6,108.8-8.9,112.1c-3.3,3.3-38.9,9.7-50.2-10.3    c-0.9-7-8.9-140.3-9.9-162.8c-0.9-22.5-5.4-191.9-2.7-197.8c32.2-14.8,57.1-37.8,77.3-36.4c14,1,55.9,26.2,80.4,41.5    c10.9,6.8,18.3,11.7,18.3,11.7c3.2,13.8,6,190.3,3.2,230.6C3097.6,1391,3102.7,1499.5,3101.5,1506.9z"/>
		<path fill="#DECFB6" d="M3101.5,1506.9c-0.9,6-33.7,22.5-54.2,5.6c28.9,10.5,46.1-20.3,44.7-37.2c-1.4-16.9-5.6-120.3-5.6-145.5    c0-25.2-4.9-155.7-6.3-175.4c-1.7-23.2-9.9-30.3-26.1-25.3c-16.2,4.9-34.5-5.3-34.5-5.3s26.6-18.7,55.5-31.9    c10.9,6.8,18.3,11.7,18.3,11.7c3.2,13.8,6,190.3,3.2,230.6C3097.6,1391,3102.7,1499.5,3101.5,1506.9z"/>
		<path fill="#F6D17A" d="M2931.1,834.1c0,0-30.2,40.9-32,54c-1.9,13.1,0,35.1,0,35.1l17.4-6.5L2931.1,834.1z"/>
		<path fill="#FF8B58" d="M3109.4,984.4c-1.5,7.2-2.9,14.4-4.3,21.5c-5.4,28-9.5,53.4-9.8,61.9c-0.3,10.6-0.3,31.3-2.1,35.9    c-13,9.9-42.2,20.7-59.8,21.5c-5.3,0.2-16.7-1.5-30.4-4.5c-31.6-6.9-75.6-20.6-85.7-33.9c-0.3-1.3-0.5-3.6-0.6-6.6    c-0.5-8.7-0.7-23.4-1-38.8c-0.3-19.4-0.6-39.9-1.2-51c-1.4-22.9-7.7-65-8-90c-0.3-18.9,21.5-64.5,24.6-66.3    c18.6-10.4,56.6-8.8,56.6-8.8l62.8,19.6c11.7,9.6,49.7,45.2,56.8,57.8C3114.3,915.4,3116.8,948.8,3109.4,984.4z"/>
		<path fill="#FFB399" d="M3050.5,817.1c0,0,0,22.2,0,27.8c0,5.6-10.9,15.5-26.9,15.5c-15.9,0-27.2-8.4-28.6-10.8    c-1.4-2.3,0-22.5,0-22.5L3050.5,817.1z"/>
		<path fill="#F6D17A" d="M3028.7,832.9c0,0-13.2,23.1-28,21.3h0c-3.2-1.9-5.2-3.7-5.7-4.6c-1.4-2.3,0-22.5,0-22.5l10.1-1.8    C3018.2,826.6,3028.7,832.9,3028.7,832.9z"/>
		<path fill="#FFFFFF" d="M3050.5,844.9c0,0,0,0.3,0.1,0.7c0.1,0.4,0,1.3-0.2,2.2c-0.5,1.9-1.8,4.4-4.1,6.7c-1.1,1.2-2.5,2.3-4,3.4    c-1.6,1-3.3,2.1-5.2,2.8c-1.9,0.8-3.9,1.5-6,1.9c-2.1,0.5-4.3,0.7-6.5,0.8l-0.8,0l-0.2,0l-0.4,0l-0.4,0l-1.5-0.1    c-1-0.1-2-0.2-3-0.3c-2-0.2-4.2-0.9-6.2-1.3c-1.9-0.6-3.7-1.4-5.4-2.1c-1.6-0.9-3.2-1.6-4.5-2.6c-1.3-0.9-2.5-1.7-3.4-2.7    c-1-0.9-1.8-1.6-2.3-2.4c-0.6-0.7-1-1.3-1.2-1.8c-0.2-0.4-0.3-0.7-0.3-0.7s0.2,0.2,0.6,0.4c0.4,0.3,1,0.6,1.8,1    c0.7,0.4,1.7,0.8,2.8,1.3c1.1,0.5,2.4,0.9,3.7,1.5c1.4,0.5,2.9,0.8,4.5,1.4c1.6,0.4,3.3,0.7,5,1.1c1.8,0.2,3.4,0.5,5.3,0.6    c1,0,2,0.1,3,0.1l1.5,0.1l0.4,0l0.1,0l0,0l0,0c0.2,0-0.2,0-0.2,0l0.2,0l0.7,0c1.9,0,3.7-0.2,5.5-0.5c1.8-0.3,3.6-0.6,5.2-1.1    c3.4-1,6.4-2.3,8.8-3.8c1.2-0.8,2.3-1.5,3.1-2.3c0.9-0.8,1.6-1.5,2.1-2.2c0.5-0.7,0.9-1.2,1-1.7    C3050.4,845.2,3050.5,844.9,3050.5,844.9z"/>
		<path fill="#FFBEA0" d="M2973.6,748.8c-2.8,19.3-3.9,69.1,9.6,78.6c17.6,12.3,32.4,10.5,35.6,9.2c5.2-2.1,26.1-8.8,32.7-13.9    c6.6-5.1,27.2-66.1-4.3-76.3C3015.8,736.1,2973.6,748.8,2973.6,748.8z"/>
		<path fill="#4B3A1C" d="M3001.3,759.5c16.2,0.8,42,6.4,41.8,29.4c-0.1,7.8-3.9,26.4,5.8,36c6.6-4.6,28.2-31.9,33.2-46.6    c4.7-13.8,9-39,5.5-53.2c-1.9-7.5-16.4-31.3-31.7-34.8c-38-8.7-65.8,4.8-81.9,13c-9,4.6-15.5,17-14.1,22.8    c1.4,5.8,2.5,22.9,14.9,27.2C2989.2,758.2,3001.3,759.5,3001.3,759.5z"/>
		<path fill="#FFBEA0" d="M3037.2,777.6c0,0,5.1-13.6,11.7-9.5c6.6,4.1,6.2,31.1-8.7,30.7C3025.3,798.3,3037.2,777.6,3037.2,777.6z"/>
		<path fill="#F6D17A" d="M3105.1,1005.9c-5.4,28-9.5,53.4-9.8,61.9c-0.3,10.6-0.3,31.3-2.1,35.9c-13,9.9-42.2,20.7-59.8,21.5    c-5.3,0.2-16.7-1.5-30.4-4.5c0,0,53.3-7.6,57.7-21.6c4.3-14.1-30.5-54-31.9-63.9c-1.4-9.9,18.1-102.2,35.6-129.7    c0,0,50.2,18.7,46.8,69.8C3110.8,979.4,3104.1,1000.6,3105.1,1005.9z"/>
		<path fill="#DECFB6" d="M2998.3,1207.1c-3.3,0-9.4,126.7-9.4,138.4c0,11.7-5.6,108.8-8.9,112.1c-3.3,3.3-38.9,9.7-50.2-10.3    c34.4,19.9,46.1-5.1,45.4-19.3c-0.7-14.2,6.3-146.2,8.2-173.7c1.9-27.4,8.7-78.1,8.7-78.1L2998.3,1207.1z"/>
		<polygon fill="#4B3A1C" points="2855.5,940.8 2932.2,984.3 2960.2,1035.4 2888.3,997.6   "/>
		<path fill="#957565" d="M2855.8,940.4c6.5,3.4,13,6.8,19.5,10.3c6.4,3.5,12.9,7,19.3,10.6l19.2,10.8L2933,983l0.4,0.2l0.2,0.4    c4.6,8.5,9.2,17.1,13.7,25.7c4.6,8.6,8.9,17.2,13.4,25.9l-0.9,0.5c-4.9-8.4-9.8-16.8-14.5-25.2c-4.8-8.4-9.6-16.9-14.2-25.4    l0.6,0.6l-19.2-10.8l-19.1-11c-6.4-3.6-12.7-7.4-19-11.1c-6.3-3.7-12.6-7.5-18.9-11.4L2855.8,940.4z"/>
		<path fill="#FFB399" d="M2968.6,1028.1l-25-4.2c0,0-10.9-17.9-15.8-19.7c-4.9-1.8-15.8-6-17.2,1.8c-1.4,7.7,0.4,24.3,7.7,29.6    c7.4,5.3,20.8,15.3,25.7,15.8c5.7,0.6,20.8,3.4,20.8,3.4s7-6.2,6.7-14C2971.1,1033.1,2968.6,1028.1,2968.6,1028.1z"/>
		<path fill="#FF7458" d="M3110.8,908.8c-7.7-19.6-42-19-49.8,2.9c-7.7,21.9-22.3,93.7-21.4,106.5c-11.1,3.9-68.1,5.3-75.2,5.7    c4,12,1,24.2-4.2,30.8c14.8,11.2,104,19,109.1,7.2C3075.3,1048,3127.9,952.1,3110.8,908.8z"/>
		<path fill="#FFFFFF" d="M2964.4,1023.9c0,0,0.4,0.4,0.9,1.2c0.3,0.4,0.6,0.8,1,1.4c0.3,0.6,0.8,1.1,1.1,1.9    c0.6,1.5,1.3,3.4,1.6,5.5c0.1,1,0.2,2.1,0.3,3.1c0,1.1-0.1,2.2-0.2,3.3c-0.1,1.1-0.3,2.2-0.6,3.2c-0.3,1-0.6,2.1-1,3    c-0.4,0.9-0.9,1.8-1.4,2.6c-0.4,0.8-1.1,1.5-1.6,2.2c-1,1.3-2.1,2.2-2.9,2.7c-0.8,0.5-1.3,0.8-1.3,0.8s0.1-0.6,0.3-1.5    c0.1-0.5,0.2-1,0.4-1.6c0.2-0.6,0.2-1.3,0.4-2c0.1-0.7,0.4-1.5,0.4-2.3c0.1-0.8,0.3-1.7,0.4-2.5c0.2-0.9,0.2-1.8,0.4-2.7    c0.2-0.9,0.3-1.8,0.4-2.7c0.1-0.9,0.2-1.8,0.4-2.7c0-0.9,0.1-1.8,0.2-2.7c0.1-0.9,0.2-1.7,0.2-2.5c0.1-0.8,0.2-1.6,0.3-2.3    c0.1-0.7,0-1.5,0.1-2.1c0-0.6,0.1-1.2,0.1-1.7C2964.3,1024.5,2964.4,1023.9,2964.4,1023.9z"/>
	</g>
	<g>
		<g>
			<path fill="#F6E7E0" d="M2498.8,1270.9c12.2-7.1,12.2-18.7,0-25.7l-231.5-134.8c-12.2-7.1-32.2-7.1-44.4,0l-408.7,236     c-12.2,7.1-12.2,18.6,0,25.6l258.8,141.9c12.2,7,32.2,6.9,44.3-0.3c0,0,20.7-11,42.7-23.4c22.1-12.4,93.2,55.9,123.8,30.7     c30.6-25.2-1.1-76.2,22.3-92.7c23.4-16.5,122.1,35.8,120.9-0.4c-1-31.3-94.7-57.5-69.9-74     C2381.9,1337.2,2498.8,1270.9,2498.8,1270.9z"/>
		</g>
		<g>
			<g>
				<polygon fill="#DA9D93" points="1850.8,1259.7 1851.1,1370.4 2052.8,1487.6 2052.5,1376.9     "/>
				<polygon fill="#DA9D93" points="2052.5,1376.9 2052.8,1487.6 2469.1,1247.3 2468.7,1136.6     "/>
				<polygon fill="#D1B2B0" points="2468.7,1136.6 2446.1,1149.6 2446.1,1260.5 2469.1,1247.3     "/>
				<polygon fill="#D1B2B0" points="2052.8,1487.6 2076.2,1474.1 2075.6,1363.5 2052.5,1376.9 2029.5,1363.5 2030.5,1474.6     "/>
				<polygon fill="#D1B2B0" points="1874.1,1273.2 1874.1,1383.7 1851.1,1370.4 1850.8,1259.7     "/>
				<g>
					<polygon fill="#EDA99D" points="2266.4,1019.3 2468.9,1136.3 2052.5,1376.9 1850.8,1259.7      "/>
					<path fill="#F6E7E0" d="M2099.3,1338.6l-8.9-2.7c-23.1-7.1-50.7-7.1-73.8,0l-8.9,2.7l-91.8-53l4.7-5.1       c12.2-13.3,12.2-29.3,0-42.6l-4.7-5.1l304.6-175.9l8.9,2.7c23.1,7.1,50.7,7.1,73.8,0l8.9-2.7l91.8,53l-4.7,5.1       c-12.2,13.3-12.2,29.3,0,42.6l4.7,5.1L2099.3,1338.6z"/>
					<path fill="#DFBEBB" d="M2309.6,1066.5l77.6,44.8c-14.3,15.6-14.3,34.4,0,49.9l-290.4,167.7c-27-8.2-59.5-8.3-86.5,0       l-77.6-44.8c14.3-15.6,14.3-34.4,0-49.9l290.4-167.7C2250.1,1074.8,2282.6,1074.8,2309.6,1066.5z"/>
					<g>
						<path fill="#DFBEBB" d="M1873,1246.6c2.3,1.3,4.3,2.9,5.8,4.5c5.1,5.5,5.1,12.1,0,17.6c-1.5,1.7-3.4,3.2-5.8,4.5l-23.1-13.3        L1873,1246.6z"/>
						<path fill="#DFBEBB" d="M2075.6,1363.5l-23.1,13.3l-23.1-13.3c2.3-1.3,4.9-2.5,7.8-3.3c9.6-2.9,21-2.9,30.6,0        C2070.6,1361.1,2073.3,1362.2,2075.6,1363.5z"/>
					</g>
					<g>
						<path fill="#DFBEBB" d="M2243.3,1032.7c2.3,1.4,4.9,2.5,7.8,3.3c9.6,2.9,21,2.9,30.5,0c2.9-0.9,5.5-2,7.8-3.3l-23.1-13.3        L2243.3,1032.7z"/>
						<path fill="#DFBEBB" d="M2445.8,1149.6l23.1-13.3l-23.1-13.3c-2.3,1.3-4.3,2.9-5.8,4.5c-5.1,5.5-5.1,12.1,0,17.6        C2441.6,1146.8,2443.5,1148.3,2445.8,1149.6z"/>
					</g>
					<path fill="#F6E7E0" d="M2097,1234.1c34.8,20.1,91.2,20.1,126,0c34.8-20.1,34.8-52.6,0-72.7c-34.8-20.1-91.2-20.1-126,0       C2062.2,1181.4,2062.2,1214,2097,1234.1z"/>
					<path fill="#DA9D93" d="M2154.7,1193.3c-5.4,1.4-10.7,1.4-14.2-0.1c-0.9-0.4-3.1-1.5-2.7-3.3c0.6-2.5,5.8-5.1,14-6.9       c4.6-1,6.9-4.1,5.1-6.7c-1.8-2.7-7-4-11.7-3c-3.9,0.9-7.1,1.8-9.9,2.8l-5.9-3.4c-3.5-2-9.2-2-12.8,0c-3.5,2-3.5,5.3,0,7.4       l6.1,3.5c-1.7,1.9-2.5,3.6-2.8,5c-1.2,5,2.5,9.9,9.8,13c8.8,3.8,21,4.2,32.4,1.2c10-2.6,17.6-1.4,19.7,1.2       c2,2.4-0.9,6.4-11.9,9.5c-4.5,1.3-6.3,4.4-4.1,7c2.2,2.6,7.6,3.6,12.1,2.3c2.9-0.8,5.5-1.8,7.8-2.7l4.6,2.7c3.5,2,9.2,2,12.8,0       c3.5-2,3.5-5.3,0-7.4l-5.5-3.2c3.7-4.5,3.5-9.1,0.4-12.7C2192.2,1192.2,2175.4,1187.8,2154.7,1193.3z"/>
				</g>
			</g>
			<g>
				<polygon fill="#EDA99D" points="2360.6,1243.8 2054.9,1444.9 1840.5,1336.5 1863,1321.8 2043.7,1426.7     "/>
				<path fill="#DFBEBB" d="M2077.8,1429.9l-23,15l-24.5-12.4c2.3-1.5,4.9-2.8,7.8-3.9c9.7-3.6,21.4-4.2,31.4-1.8      C2072.6,1427.7,2075.4,1428.7,2077.8,1429.9z"/>
				<path fill="#DFBEBB" d="M1863.4,1321.5c2.5,1.2,4.6,2.7,6.2,4.3c5.5,5.4,5.9,12.1,1.1,18.1c-1.4,1.8-3.3,3.5-5.7,5l-24.5-12.3      L1863.4,1321.5z"/>
			</g>
		</g>
	</g>
	<g>
		<g>
			<g>
				<path fill="#4B3A1C" d="M2330.8,1385.9c-0.6,4-0.5,22.2,3.2,25.3c3.7,3.2,19.8,6.7,26.3,2.3c10.6,6,26.2,20.5,49.6,19.6      c23.4-0.9,20.7-13.1,16-19.2c-4.7-6.1-49.9-40.6-56.6-42.9c-6.7-2.3-20.3-3.7-24.1-1.2      C2341.5,1372.3,2330.8,1385.9,2330.8,1385.9z"/>
				<path fill="#FAE4B9" d="M2327.8,1379l3,6.9c0,0,12.7,2.1,23.7-2.4c11.1-4.6,14.8-12.4,14.8-12.4l-0.9-4.6c0,0-21.6-4.6-28.2-0.9      C2333.5,1369.2,2327.8,1379,2327.8,1379z"/>
				<path fill="#4B3A1C" d="M2215.9,1454.8c-2.3,2-1.7,18.2,0.5,22.4c2.2,4.1,12.2,12.3,17.3,9.4c0,0,19.2,34.2,34.2,35.8      c5.5,0.6,26.3-0.1,23.9-10.9c-2.4-10.8-27.4-55-32.1-63.1c-4.7-8.1-19.5-5.6-23.4-4.9      C2232.3,1444.3,2215.9,1454.8,2215.9,1454.8z"/>
				<path fill="#FAE4B9" d="M2214.3,1446.3l1.6,8.5c0,0,13.4,5.2,24.9,2.6c11.4-2.5,18.9-9,18.9-9l-1.1-5.6c0,0-10.9-8.8-19-6.6      C2231.5,1438.4,2214.3,1446.3,2214.3,1446.3z"/>
				<path fill="#7A3B2E" d="M2056.5,1168.7c5.8,11.7,21.9,43.2,56.7,71.1c34.8,28,67.4,48.4,69.7,56.4      c2.2,17.3,28.7,146.3,29.9,152.7c10,7.2,22.4,4.8,29.6,3.4c5.1-1,11.9-6.1,15.2-8.9c1.1-0.9,1.8-1.5,2.1-1.8      c0,0,0.1-0.1,0.1-0.1c0,0-5.8-140.9-6.1-164.2c-3.2-24.2-33.7-67-49.9-95.2c43.1,30.5,76.8,38.9,80.9,53.5      c1.7,15.1,34.9,138.8,37.3,142.5c8.8,4.6,45.6,0,49.2-18.5l0,0c-1.9-14.2-27.7-157.9-29.5-169.2      c-2.9-18.1-95.1-91.3-110.2-109.3c-15-18.1-39.9-29.9-55.5-29.9c-15.3,0-82.5,8.7-106.9,26.6c-6.4,4.7-10.5,8.7-11.1,11.4      C2054.1,1106.1,2046.9,1149.5,2056.5,1168.7z"/>
				<path fill="#DECFB6" d="M2056.5,1168.7c5.8,11.7,21.9,43.2,56.7,71.1c34.8,28,67.4,48.4,69.7,56.4      c2.2,17.3,28.7,146.3,29.9,152.7c10,7.2,22.4,4.8,29.6,3.4c5.1-1,11.9-6.1,15.2-8.9c-23.1,2.4-32.9-0.7-36-18.1      c-3.1-17.4-24.1-125.5-30.2-133.7c-6.2-8.2-47.7-53.6-90.9-83.6c-43.2-30.1-36.6-76.5-34.8-89.2c1.8-12.7,37.6,3.5,57.2-0.2      c0,0-27.3-25.3-53.8-40.8c-6.4,4.7-10.5,8.7-11.1,11.4C2054.1,1106.1,2046.9,1149.5,2056.5,1168.7z"/>
				<path fill="#DECFB6" d="M2188.7,1157.6l15.1,24.7c0,0,0,0,0,0c43.1,30.5,76.8,38.9,80.9,53.5c1.7,15.1,34.9,138.8,37.3,142.5      c8.8,4.6,45.6,0,49.2-18.5c-1.1,0.5-26.1,12.9-35.3,8.3c-9.4-4.7-34.3-94.8-38.3-118.4c-4.1-23.6-13.3-34.6-33-42      C2245.1,1200.3,2190.4,1158.9,2188.7,1157.6z"/>
			</g>
			<g>
				<path fill="#C8D752" d="M2057.1,994.3c1.4,6.7,2.7,13.5,4,20.1c5,26.2-5.4,31.5-5.1,39.8c0.3,10.3,0.3,30.7,2,35.1      c12.8,9.6,41.3,20.3,58.6,21c5.2,0.2,16.4-1.5,29.8-4.4c31-6.7,74-20.2,83.9-33.2c0.2-1.3,0.4-3.5,0.6-6.5      c0.5-8.5,7-4.4,7.2-18.8c0.3-18.1,0.5-37.3,1.2-47.6c1.3-21.4,9.6-62.2,9.9-85.5c0.2-17.7,1.3-39.4-4.2-52.9      c-0.1-0.2-0.2-0.4-0.3-0.6c-0.3-0.6-0.5-1.2-0.8-1.7c-1.7-3.3-3.8-6.1-6.6-7.9c-18.8-12.4-58.2-8.2-58.2-8.2l-67,20.9      c-11,9-46.5,42.2-53.1,54.1C2052.4,929.8,2050.1,961.1,2057.1,994.3z"/>
				<path fill="#FFB399" d="M2112.1,837.9c0,0,0,20.7,0,26c0,5.3,10.2,14.5,25.1,14.5c14.9,0,25.4-7.9,26.8-10.1      c1.3-2.2,0-21.1,0-21.1L2112.1,837.9z"/>
				<path fill="#F6D17A" d="M2132.5,852.7c0,0,12.4,21.6,26.1,19.9h0c3-1.8,4.8-3.5,5.3-4.3c1.3-2.2,0-21.1,0-21.1l-9.4-1.7      C2142.3,846.8,2132.5,852.7,2132.5,852.7z"/>
				<path fill="#FFFFFF" d="M2112.1,863.9c0,0,0,0.2-0.1,0.7c-0.1,0.4,0,1.2,0.2,2c0.2,0.9,0.6,1.9,1.3,2.9c0.6,1.1,1.5,2.2,2.5,3.3      c1,1.1,2.3,2.2,3.8,3.2c1.5,0.9,3,1.9,4.8,2.6c0.9,0.4,1.8,0.7,2.7,1c0.9,0.3,1.9,0.6,2.9,0.8c2,0.5,4,0.7,6,0.7l0.8,0l0.2,0      l0.4,0l0.4,0l1.4-0.1c0.9-0.1,1.9-0.2,2.8-0.2c1.9-0.2,3.9-0.8,5.8-1.2c1.8-0.6,3.5-1.3,5-1.9c1.5-0.8,3-1.5,4.2-2.4      c1.2-0.9,2.3-1.6,3.2-2.5c0.9-0.8,1.7-1.5,2.2-2.2c0.6-0.6,0.9-1.2,1.2-1.6c0.2-0.4,0.3-0.6,0.3-0.6s-0.2,0.1-0.6,0.4      c-0.3,0.3-0.9,0.6-1.6,1c-0.7,0.4-1.6,0.8-2.6,1.3c-1,0.5-2.2,0.9-3.5,1.4c-1.3,0.5-2.7,0.8-4.2,1.3c-1.5,0.3-3.1,0.7-4.7,1.1      c-1.6,0.2-3.2,0.5-5,0.6c-0.9,0-1.9,0.1-2.8,0.1l-1.4,0.1l-0.4,0l-0.1,0l0,0h0c-0.2,0,0.2,0,0.2,0l-0.2,0l-0.7,0      c-1.7,0-3.5-0.2-5.2-0.5c-1.7-0.2-3.4-0.6-4.9-1.1c-1.6-0.5-3.1-1-4.5-1.6c-1.4-0.7-2.7-1.3-3.8-2c-1.1-0.7-2.1-1.4-2.9-2.2      c-0.8-0.7-1.5-1.4-1.9-2.1c-0.4-0.6-0.8-1.1-0.9-1.6C2112.2,864.1,2112.1,863.9,2112.1,863.9z"/>
				<path fill="#FFBEA0" d="M2187.6,777.8c1.7,18.1,0.3,64.7-12.8,72.9c-17,10.6-30.7,8.3-33.7,6.8c-4.7-2.3-23.9-9.5-29.8-14.6      c-5.9-5.1-22.2-63.1,7.7-71.1C2148.9,763.9,2187.6,777.8,2187.6,777.8z"/>
				<path fill="#4B3A1C" d="M2161.2,786.4c-15.1,0-39.6,3.9-40.5,25.4c-0.3,7.3,2.4,24.8-7.1,33.3c-5.9-4.6-24.8-31.1-28.7-45.2      c-3.7-13.1-6.5-36.9-2.5-49.9c2.1-6.9,16.9-28.5,31.3-31c35.9-6.3,61.2,7.7,75.8,16.1c8.2,4.7,13.7,16.6,12.1,22      c-1.6,5.4-3.4,21.2-15.2,24.7C2172.6,785.9,2161.2,786.4,2161.2,786.4z"/>
				<path fill="#FFBEA0" d="M2126.8,801.6c0,0-4.1-13-10.4-9.5c-6.3,3.5-7.3,28.7,6.6,29.1C2137,821.5,2126.8,801.6,2126.8,801.6z"/>
				<path fill="#D1E436" d="M2061.1,1014.4c5,26.2-5.4,31.5-5.1,39.8c0.3,10.3,0.3,30.7,2,35.1c12.8,9.6,41.3,20.3,58.6,21      c5.2,0.2,16.4-1.5,29.8-4.4c0,0-32-24.8-40.6-36.3c-9.4-12.6-5.6-34-4.3-43.2c1.3-9.2,5.1-52.1,0.9-73.3      c0,0-28.4,15.9-38.1,48.2C2063.1,1005.1,2062,1009.5,2061.1,1014.4z"/>
			</g>
		</g>
		<g>
			
				<linearGradient id="SVGID_00000132055439383124919430000012016201234916889524_" gradientUnits="userSpaceOnUse" x1="2875.929" y1="1199.2272" x2="3129.3469" y2="1199.2272" gradientTransform="matrix(-1 0 0 1 5255.2227 0)">
				<stop offset="4.132230e-03" style="stop-color: rgb(228, 146, 37);"/>
				<stop offset="1" style="stop-color: rgb(202, 45, 0);"/>
			</linearGradient>
			<path fill="url(#SVGID_00000132055439383124919430000012016201234916889524_)" d="M2128.3,1193.6l82.4,47.9     c3.2,1.9,8.5,1.9,11.7,0l154.5-89.2c1.6-0.9,2.4-2.2,2.4-3.4l0,6.7c0,1.2-0.8,2.5-2.4,3.4l-154.5,89.2c-3.2,1.9-8.5,1.9-11.7,0     l-82.4-47.9c-1.6-0.9-2.4-2.1-2.4-3.4l0-6.7C2125.9,1191.4,2126.7,1192.6,2128.3,1193.6z"/>
			<path fill="#F5DB99" d="M2128.3,1186.8c-3.2,1.9-3.3,4.9-0.1,6.8l82.4,47.9c3.2,1.9,8.5,1.9,11.7,0l154.5-89.2     c3.2-1.9,3.2-4.9,0-6.8l-82.4-47.9c-3.2-1.9-8.5-1.9-11.7,0L2128.3,1186.8z"/>
			<path fill="#DCA802" d="M2218.3,1235.6c1,0,1.6-0.2,1.7-0.3l148-85.4l-47.7-27.4c-0.1-0.1-0.7-0.3-1.7-0.3c-1,0-1.6,0.2-1.7,0.3     l-148,85.4l47.7,27.4C2216.7,1235.4,2217.3,1235.6,2218.3,1235.6z"/>
			<polygon fill="#DCA802" points="2224.9,1169.5 2251.2,1154.4 2224.9,1139.3 2198.7,1154.4    "/>
			
				<linearGradient id="SVGID_00000033359562665168734550000009754842268285053824_" gradientUnits="userSpaceOnUse" x1="2838.0261" y1="1159.5897" x2="3037.9495" y2="1159.5897" gradientTransform="matrix(-1 0 0 1 5255.2227 0)">
				<stop offset="4.132230e-03" style="stop-color: rgb(228, 146, 37);"/>
				<stop offset="1" style="stop-color: rgb(202, 45, 0);"/>
			</linearGradient>
			<path fill="url(#SVGID_00000033359562665168734550000009754842268285053824_)" d="M2217.6,1241.6l27.9-73.2     c1.1-2.8,4.6-6.7,7.9-8.6l154.5-89.2c1.9-1.1,3.3-1.3,3.9-0.7c1.8,1.8,3.7,3.7,5.5,5.5c-0.6-0.6-2-0.4-3.9,0.7l-154.5,89.2     c-3.2,1.9-6.8,5.7-7.9,8.6l-27.9,73.2c-0.5,1.2-0.4,2,0,2.4c-1.8-1.8-3.7-3.7-5.5-5.5C2217.2,1243.6,2217.1,1242.8,2217.6,1241.6     z"/>
			<path fill="#DCA802" d="M2258.9,1165.3c-3.2,1.9-6.8,5.7-7.9,8.6l-27.9,73.2c-1.1,2.8,0.7,3.6,3.9,1.8l154.5-89.2     c3.2-1.9,6.8-5.7,7.8-8.6l27.9-73.2c1.1-2.8-0.7-3.6-3.9-1.8L2258.9,1165.3z"/>
		</g>
		<g>
			<path fill="#BEC27C" d="M2229,1080.3c0.1,0.9,0.1,1.8,0.2,2.8c0.7,8.4,2.7,17.4,4.3,24c0.8,3.3,1.5,6,1.9,7.7     c2.7,11.8,13.7,13.4,21.5,7.2c2.7-2.2,5-5.4,6.5-9.4c5.5-15.5,11-92.6,12.6-101.6c1.6-9-4.7-82.1-10.3-104.3     c-4.7-18.3-13.9-36.6-21.7-47.6c0.3,0.6,0.6,1.1,0.8,1.7c0.1,0.2,0.2,0.4,0.3,0.6c5.5,13.6,3.3,34,4.2,53     c-1.6,20.2-4.9,41-7.6,64.3c-2,16.5-3.7,34.3-4.3,54C2236.9,1043,2229.3,1061.3,2229,1080.3z"/>
			<path fill="#D1E436" d="M2229,1080.3c0.1,0.9,0.1,1.8,0.2,2.8c0.7,8.4,2.7,17.4,4.3,24l1,2.5l1.8-9.1c1.6-53.9,9.6-79.6,9.6-79.6     l13.6-10.5c0,0-10.8,2.5-16,4.3c-0.3-2.9-1.7-27.5-1.8-36c-2,16.5-3.7,34.3-4.3,54C2236.9,1043,2229.3,1061.3,2229,1080.3z"/>
			<path fill="#FFB399" d="M2250.5,1097c13.7,2.2,38.6,32.6,32.2,41.3c-5.1,4.6-15.6,1-24.3-2.7c-8.7-3.7-14.7-13.4-33.5-5.1     c-5.6-8.5-4.1-11.8,3.3-19.9C2235.4,1102.5,2240.4,1095.4,2250.5,1097z"/>
			<path fill="#BEC27C" d="M2177.1,1137.2c-2.3-5.2-40-35-52.5-42.2c-12.4-7.2-32.1-28-38.7-36.6c-0.7-18.3,22.4-96.6,14.2-119.7     c-8.2-23-36.8-25.5-41.1-20.7c-5.3,5.9-13.9,28.1-14.1,49.3c-0.4,30-8.1,68-7.1,82.1c1,14.1,8.2,41.3,11.6,45.5     c3.4,4.1,20,16.9,42.7,26.6c22.7,9.7,70,33.4,70,33.4L2177.1,1137.2z"/>
			<path fill="#FFB399" d="M2170.6,1130.8c-7.8,2.8-18.6,16.6-15.6,21.7c6.7,5.4,25.3,6.2,29.1,11.3c3.8,5.1,11.6,11.8,19.1,12.1     c7.5,0.4,15.6,0,11.9-8.4c-3.6-8.4-12.7-31.5-18.3-33.8C2191.2,1131.5,2170.6,1130.8,2170.6,1130.8z"/>
			<path fill="#FFFFFF" d="M2170.6,1130.8c0,0-0.5,0-1.3,0c-0.8,0-2.2,0.3-3.5,0.9c-2.8,1-5.9,3.3-8.3,6.3c-2.4,3-4.1,6.6-4.2,9.8     c-0.1,0.8,0,1.5,0.1,2.1c0.1,0.6,0.4,1.2,0.6,1.6c0.2,0.4,0.6,0.6,0.7,0.8c0.2,0.2,0.3,0.2,0.3,0.2s0-0.6,0.1-1.3     c0.1-0.4,0.2-0.8,0.5-1.2c0.2-0.5,0.5-0.9,0.8-1.4c0.6-1,1.5-2.2,2.4-3.4c1-1.2,1.9-2.5,3-3.8c1-1.3,2.1-2.6,3.1-3.8     c1-1.2,1.9-2.4,2.7-3.4c0.4-0.5,0.8-0.9,1.1-1.4c0.4-0.4,0.6-0.8,1-1.1C2170.3,1131.2,2170.6,1130.8,2170.6,1130.8z"/>
		</g>
	</g>
	<g>
		<path fill="#FAE4B9" d="M2012.8,2391.3c-54.4,31.4-142.5,31.4-196.9,0c-54.4-31.4-54.4-82.3,0-113.7c54.4-31.4,142.5-31.4,196.9,0    C2067.1,2309,2067.1,2359.9,2012.8,2391.3z"/>
		<path fill="#4B3A1C" d="M1792.9,2311.8c-1.4,6.7-2.4,21.4,2.4,27.6c4.8,6.2,25.3,7.2,31.9,4.8c6.7-2.4,36.2-52,39.6-64.3    c3.3-12.4-4.3-19.1-25.3-10c-21,9.1-45.4,28.4-45.4,28.4L1792.9,2311.8z"/>
		<path fill="#FFB399" d="M1792.9,2311.8c0,0,9,7.6,17.6,6.7c8.6-0.9,30.5-4.3,37.6-25.7c-14.8-8.5-52.1,5.5-52.1,5.5L1792.9,2311.8    z"/>
		<path fill="#4B3A1C" d="M2030.1,2357.5c-1.6,3.3-46.7,42.2-57,46.5c-10.3,4.3-28.8-4.6-32.9-9.8c-4.1-5.2-2-24.6-2-24.6    s15.5,13.2,29.4,7c13.9-6.2,39.2-23,40.2-28.1c1.1-5.2-10.8-11.1-10.8-11.1c5.4-1.2,29.4-5,33-1.2    C2033.7,2339.9,2031.6,2354.2,2030.1,2357.5z"/>
		<path fill="#FFB399" d="M2007.9,2348.4c-1,5.1-26.3,22-40.2,28.1c-14,6.2-29.4-7-29.4-7s1-7.8,1.9-12.2    c0.9-4.4,13.1-11.3,20.8-12.2c7.7-0.9,36.2-7.8,36.2-7.8S2008.9,2343.2,2007.9,2348.4z"/>
		<path fill="#4B3A1C" d="M1994.2,2105.9c-1.1,36.2-6.2,244-6.2,244s-19,24.5-48.6,8.8c-0.6-0.3-1.2-0.6-1.8-1    c-2.9-23.8-12.2-202.3-12.2-211.8c0-9.5-38.5-152.5-38.5-152.5s-12,105.8-14,119.1c-1.9,13.3-23.8,172.5-24.8,180.1    c-10.5,14.3-41.2,19.8-56.4,5.5c-1.9-30.5,16.9-198,17.6-206.5c0.7-8.6-13.2-174.6-14.9-200.4c-0.9-12.9,0.4-28.2,3.2-42.3    c2.8-14.1,13.5-23.3,18.4-31.3c9.8-16,13.8-26.4,11.8-36.6c-2-10.3,17.3-24,40.5-14.2c23.1,9.8,107.6,38.7,107.6,38.7    c-0.4,15.9,0.9,28.8,2.9,40.1c3.5,19.6,8.7,34.5,9.8,52C1990.1,1925,1995.4,2069.7,1994.2,2105.9z"/>
		<path fill="#DECFB6" d="M1994.2,2105.9c-1.1,36.2-6.2,244-6.2,244s-19,24.5-48.6,8.8c0.9-0.6,2.2-1,4-1    c25.8,0.1,36.9-16.5,36.3-31.7c-0.7-15.1-1.2-198.3-0.2-211.6c1-13.4-2.4-165.1-4.7-188.6c-2.2-23.5-13.9-28.6-27-26.4    c-13.1,2.2-30.3-1.3-40.7-7.3c0,0,16.3-27.9,29.5-37.5c8.6-6.2,25.7-10.8,42.2-9.1c3.5,19.6,8.7,34.5,9.8,52    C1990.1,1925,1995.4,2069.7,1994.2,2105.9z"/>
		<path fill="#BEC27C" d="M1778.3,1590.1c-6.9,19.6-6.4,133.5,0,149c6.4,15.6,54.1,39.2,54.1,39.2L1778.3,1590.1z"/>
		<path fill="#C8D752" d="M1986.1,1745.4c-6.2,20.9-10.2,60-10.2,60c2.2,18.8,6.5,48.8,5.9,60.1c-11.3,13.6-45.7,29-74.7,26.7    c-29-2.4-99.6-26.3-109.4-43.4c9.6-39.6,20.9-54.6,21-72.7c-1.8-14.7-8-25.3-11.8-32.9c-3.8-7.6-20.5-44-27.6-83.6    c-7.1-39.6-4-65.8,0-71.6c4-5.8,17.3-15.1,22.7-15.6c5.3-0.4,56-4,56-4l59.6,24c13.6,12.5,62.7,55.1,64.9,67.2    c1.4,7.5,4.9,30.9,5.8,52.5C1988.8,1725.1,1988.5,1737.5,1986.1,1745.4z"/>
		<path fill="#FFB399" d="M1927.4,1571.1c0,0,0,28,0,31.6c0,3.5-16,11.6-31.6,8c-15.6-3.6-32.9-16.5-32.9-19.3c0-2.9,0-29.6,0-29.6    s25.8-14.2,32.2-9.8C1901.6,1556.4,1927.4,1571.1,1927.4,1571.1z"/>
		<path fill="#F6D17A" d="M1927.4,1571.1v30.2c0,0-16.8-9-24.6-21.5C1895.1,1567.3,1927.4,1571.1,1927.4,1571.1z"/>
		<path fill="#FFFFFF" d="M1927.4,1602.7c0,0,0,0.3-0.1,0.8c-0.2,0.6-0.6,1.4-1.3,2.2c-0.7,0.8-1.7,1.7-2.9,2.5    c-1.2,0.9-2.6,1.8-4.2,2.5c-1.6,0.8-3.4,1.5-5.4,2.1c-2,0.6-4.1,1.1-6.4,1.4c-2.3,0.2-4.7,0.4-7.1,0.2c-1.2-0.1-2.4-0.2-3.7-0.5    l-0.9-0.2l-0.2,0l-0.3-0.1l-0.4-0.1l-1.7-0.4c-2.3-0.6-4.7-1.5-6.8-2.4c-2.2-0.9-4.2-2-6.1-3.1c-3.8-2.2-7.2-4.6-9.8-7    c-2.7-2.3-4.7-4.5-5.9-6.2c-0.6-0.9-1-1.6-1.2-2.2c-0.1-0.6-0.1-0.9-0.1-0.8c0,0,0.1,0.3,0.4,0.7c0.4,0.4,1,0.9,1.7,1.4    c1.6,1.1,4.1,2.6,7,4.2c1.5,0.8,3.1,1.6,4.8,2.5c1.7,0.8,3.6,1.7,5.5,2.5c1.9,0.9,3.9,1.6,5.9,2.4c2.1,0.7,4,1.4,6.1,2l1.7,0.5    l0.4,0.1l0.1,0c0,0,0.1,0,0,0l0,0l0.2,0l0.8,0.1c1,0.2,2,0.4,3.1,0.5c2,0.3,4.1,0.4,6.1,0.4c2-0.1,4-0.2,5.8-0.4    c1.8-0.3,3.6-0.6,5.2-0.9c1.6-0.4,3.1-0.8,4.3-1.3c1.3-0.5,2.3-0.9,3.2-1.4c0.8-0.5,1.4-0.9,1.8-1.3    C1927.3,1602.9,1927.4,1602.7,1927.4,1602.7z"/>
		<path fill="#FFBEA0" d="M1945.1,1482.4c2.8,8.1,11,58.7,4.1,77c-6.9,18.3-11,32.2-40.3,22.4c-29.3-9.8-40.3-11.4-38.3-37.9    C1872.6,1517.4,1945.1,1482.4,1945.1,1482.4z"/>
		<path fill="#4B3A1C" d="M1955.3,1491.3c3.8-2.2,3.3-45.2-22-59.1c-25.3-13.8-68-9-84.7,12.6c-24.8-6.1-46.4,9.8-53.8,37.5    c-7.3,27.7,15,55.8,33.5,51.3c3.9,19.6,26.7,49.7,38.1,51.3c11.4,1.6,37.5-6.5,38.7-30.1c1.2-23.6,14.9-51.6,22-56.6    C1936,1492,1953.2,1492.5,1955.3,1491.3z"/>
		<path fill="#FFBEA0" d="M1915,1533.7c0,0-7.3-24.8-17.1-15.5c-9.8,9.4,0.4,40.7,10.6,37.5C1918.6,1552.4,1915,1533.7,1915,1533.7z    "/>
		<path fill="#FFB399" d="M2148.5,1761.3c7.5-6.6,12.4-22.1,18.6-24.3c6.2-2.2,11.7,1,10,7.7c9-7.6,26-13.5,30.9-9.5    c4.9,4-0.5,36.8-10.3,45.2c-9.8,8.5-27.5,8.1-34.1,11.7L2148.5,1761.3z"/>
		<path fill="#D1E436" d="M1986.1,1745.4c-6.2,20.9-10.2,60-10.2,60c2.2,18.8,6.5,48.8,5.9,60.1c-11.3,13.6-45.7,29-74.7,26.7    c57.8-17.7,57.8-57.4,57.8-66.2c0-31.3-17-52.1-29.3-81.5c-12.3-29.3-7.5-61.7,0-77.1c0,0,30.7,23.4,52.8,44.6    C1988.8,1725.1,1988.5,1737.5,1986.1,1745.4z"/>
		<path fill="#BEC27C" d="M1977.7,1655.6c-11.1-6.2-39.1,0-44,16c-4.9,16,3.1,46.2,10.2,58.7c7.1,12.4,80.5,107.6,89.8,112.9    c9.3,5.3,32,7.1,41.8,4c9.8-3.1,80.5-44.5,86.7-48.5c4-10.2-0.4-23.6-4-28.9c-3.6-5.3-12.4-10.2-12.4-10.2s-32,10.2-45.8,17.3    c-13.8,7.1-35.6,19.1-39.1,18.2c-3.6-0.9-15.1-24-19.6-34.2c-4.4-10.2-40.8-73.8-47.1-86.7    C1987.8,1661.4,1977.7,1655.6,1977.7,1655.6z"/>
		<path fill="#FFFFFF" d="M2162.2,1798.7c0,0-0.1-0.8-0.1-2.1c0-0.7,0-1.4,0-2.3c-0.1-0.9-0.3-1.8-0.3-2.8c0-0.9-0.4-2.1-0.5-3.2    c-0.1-1.1-0.5-2.3-0.8-3.6c-0.3-1.2-0.6-2.5-1-3.8c-0.3-1.3-0.8-2.5-1.3-3.8c-0.4-1.3-1-2.4-1.5-3.7c-0.3-0.5-0.6-1.1-0.8-1.6    l-0.1-0.2l0-0.1l0-0.1l0,0c0.2,0.3,0.1,0.1,0.1,0.2l0,0l-0.3-0.4l-0.6-0.9c-0.4-0.6-0.7-1.1-1.1-1.5c-0.3-0.4-0.6-0.9-1-1.3    c-0.8-0.9-1.5-1.8-2.2-2.5c-2.9-3.1-5-5.4-5-5.4c0,0,3.1,0.4,7.1,2.5c1,0.5,2.1,1.2,3.2,1.9c1,0.8,2.5,1.9,3.3,2.9l0.7,0.8    l0.3,0.4l0.5,0.7c0.4,0.7,0.9,1.3,1.3,2c0.7,1.4,1.4,2.8,1.9,4.3c0.5,1.5,1,2.9,1.3,4.5c0.3,1.5,0.6,3,0.6,4.4    c0.1,1.4,0.2,2.9,0,4.2c-0.1,1.3-0.2,2.6-0.6,3.8c-0.3,1.2-0.6,2.2-0.9,3.1c-0.4,0.8-0.8,1.5-1.1,2.1    C2162.6,1798.1,2162.2,1798.7,2162.2,1798.7z"/>
		<path fill="#DECFB6" d="M1887,1993.5c0,0-12,105.8-14,119.1c-1.9,13.3-23.8,172.5-24.8,180.1c-10.5,14.3-41.2,19.8-56.4,5.5    c29.2,7.3,47.2-11.8,49.8-28.4c2.6-16.6,18-136.2,19.5-153c1.5-16.9,11.7-161.5,11.7-161.5L1887,1993.5z"/>
	</g>
	<g>
		
			<linearGradient id="SVGID_00000108290632691157466130000007325479860554428565_" gradientUnits="userSpaceOnUse" x1="3357.1824" y1="999.4647" x2="3662.8936" y2="999.4647" gradientTransform="matrix(0.866 0.5 0 1.1547 383.8147 -1627.1394)">
			<stop offset="0" style="stop-color: rgb(157, 194, 46);"/>
			<stop offset="1" style="stop-color: rgb(182, 224, 84);"/>
		</linearGradient>
		<path fill="url(#SVGID_00000108290632691157466130000007325479860554428565_)" d="M3555.9,1429.2c0,12.5-8.8,17.6-19.6,11.3    l-225.5-130.2c-10.8-6.2-19.6-21.5-19.6-34v-141.7c0-12.5,8.8-17.6,19.6-11.3l225.5,130.2c10.8,6.2,19.6,21.5,19.6,34V1429.2z"/>
		<path fill="#97AF4E" d="M3300.7,1119.9c0,0.1,1.7-0.4,5.5,0.5c1.7,0.5,3.8,1.4,6,2.6c2.2,1.2,4.7,2.6,7.5,4.1    c11.2,6.3,27.2,15.1,46.3,25.9c19.1,10.8,41.4,23.3,65.2,37c23.8,13.6,49.2,28.2,74.5,42.8c6.3,3.7,12.6,7.3,18.9,11    c3.2,1.8,6.3,3.7,9.4,5.5l2.3,1.4l1.2,0.7l0.3,0.2l0.1,0.1l0.3,0.2l0.6,0.4c1.5,1.1,3,1.9,4.4,3.4c5.9,5.4,9.8,11.8,12.5,18.8    l1,2.6c0.3,0.9,0.4,1.8,0.7,2.7l0.6,2.7l0.2,2.8c0.2,1.9,0.2,3.7,0.2,5.4c0,1.7,0,3.4,0,5.2c-0.1,13.7-0.2,27-0.3,39.5    c-0.1,12.6-0.2,24.4-0.3,35.4c-0.2,21.9-0.6,40.2-0.8,53c-0.1,3.2,0,6.1-0.3,8.6c-0.4,2.6-1.1,4.8-2.2,6.4c-2,3.2-4.1,3.9-4,4    l-0.9-1.5c-0.1-0.1,1.7-0.7,3.2-3.4c0.8-1.3,1.4-3.3,1.7-5.6c0.3-2.4,0.1-5.2,0.1-8.4c-0.2-12.8-0.6-31.1-0.8-53    c-0.1-11-0.2-22.8-0.3-35.4c-0.1-12.6-0.2-25.8-0.3-39.5c0-1.7,0-3.4,0-5.2c0-1.7,0-3.5-0.2-5l-0.2-2.4l-0.6-2.4    c-0.2-0.8-0.4-1.6-0.6-2.4l-0.9-2.3c-2.3-6.1-6.3-12.1-11-16.4c-1-1.1-2.6-2.1-4.1-3.2l-0.9-0.6l-1.2-0.7l-2.4-1.4    c-3.1-1.8-6.3-3.6-9.5-5.4c-6.3-3.6-12.7-7.3-19-10.9c-25.3-14.7-50.6-29.4-74.3-43.2c-23.7-13.7-45.7-26.9-64.6-38    c-18.9-11.1-34.5-20.6-45.6-27.1c-5.6-3.2-9.7-6.2-12.8-7c-2.9-0.9-5-0.5-4.9-0.6L3300.7,1119.9z"/>
		<polygon fill="#655130" points="3555.9,1333.1 3291.1,1180.3 3291.1,1144.9 3555.9,1297.8   "/>
		<path fill="#DDEAB9" d="M3351.2,1253.2c0,3.1-2.2,4.4-4.9,2.8l-28.2-16.3c-2.7-1.6-4.9-5.4-4.9-8.5v-7.3c0-3.1,2.2-4.4,4.9-2.8    l28.2,16.3c2.7,1.6,4.9,5.4,4.9,8.5L3351.2,1253.2z"/>
		<path fill="#DDEAB9" d="M3396.5,1279.4c0,3.1-2.2,4.4-4.9,2.8l-28.2-16.3c-2.7-1.6-4.9-5.4-4.9-8.5v-7.3c0-3.1,2.2-4.4,4.9-2.8    l28.2,16.3c2.7,1.6,4.9,5.4,4.9,8.5L3396.5,1279.4z"/>
		<path fill="#DDEAB9" d="M3441.9,1305.6c0,3.1-2.2,4.4-4.9,2.8l-28.2-16.3c-2.7-1.6-4.9-5.4-4.9-8.5v-7.3c0-3.1,2.2-4.4,4.9-2.8    l28.2,16.3c2.7,1.6,4.9,5.4,4.9,8.5L3441.9,1305.6z"/>
		<path fill="#DDEAB9" d="M3487.2,1331.7c0,3.1-2.2,4.4-4.9,2.8l-28.2-16.3c-2.7-1.6-4.9-5.4-4.9-8.5v-7.3c0-3.1,2.2-4.4,4.9-2.8    l28.2,16.3c2.7,1.6,4.9,5.4,4.9,8.5L3487.2,1331.7z"/>
		<path fill="#FAE4B9" d="M3550.1,1543.4c-2.7,1.5-66-32.5-141.5-76.1c-75.5-43.6-134.5-80.1-131.8-81.7c2.7-1.5,66,32.5,141.5,76.1    C3493.8,1505.2,3552.8,1541.8,3550.1,1543.4z"/>
	</g>
	<g>
		<path fill="#F6E7E0" d="M2632,2316.3c11.7,6.7,30.8,6.7,42.4,0l176.9-100.3c11.7-6.7,11.7-17.8,0-24.5l-228.8-134.4    c-11.7-6.7-30.8-6.7-42.4,0l-176.9,100.3c-11.7,6.7-11.7,17.8,0,24.5L2632,2316.3z"/>
		<g>
			<path fill="#745428" d="M2445.2,2143.5l223.8,129.1c1.2,0.3,3.6,0.2,7.2-1.9l145.7-83.8c0.2-0.1,0.4-0.2,0.6-0.4     c5.6-3.4,8.7-7.7,9.2-12.2c0.3-2.2-0.1-4.5-1.2-6.7c-1.5-3.1-4.4-6.1-8.6-8.5L2646,2057.8c-13.2-7.6-34.7-7.7-47.9-0.1     l-145.7,83.8C2448.9,2143.7,2446.4,2143.8,2445.2,2143.5z"/>
		</g>
		<path fill="#967200" d="M2645.5,2279.9c1.4-7.1,4.8-14.5,9.7-21.4c0.7-1,1.5-2.1,2.3-3.1c5.2-6.5,11.6-12.3,18.6-16.4l145.7-83.8    c0,0,0,0,0,0l0.5-0.3l0,0c5.9-3.5,9-8,9.4-12.6c0.2,2,0.2,4.3,0.2,7.1c0,4.6-0.1,10.4-0.2,18c0,0.8,0,1.7,0,2.5    c-0.4,3.9-2.8,7.6-7.1,10.8l-148.4,85.4c-0.1,0-0.1,0.1-0.2,0.1c-1.3,0.8-2.4,1.6-3.4,2.4c-1.7,1.4-2.9,2.9-3.7,3.9    c1.2,0.3,3.7,0.2,7.3-1.9l145.7-83.8c0,0,0,0,0,0l0.3-0.2c0.1-0.1,0.2-0.1,0.3-0.2c5.6-3.4,8.7-7.7,9.2-12.1    c0.1,1.9,0.2,4.1,0.2,6.7c0,4.6-0.1,10.3-0.2,17.7c0,0.8,0,1.6,0,2.5c-0.3,3.1-1.9,6.1-4.7,8.8c-1.4,1.4-3.1,2.6-5.1,3.8    l-135,77.7l-10.6,6.2c-17.6,10.2-31.4,5.2-31.5-11.2C2644.8,2284.4,2645.1,2282.2,2645.5,2279.9z"/>
		<path fill="#F34F2C" d="M2428,2172l223.8,129.1c-4.3-2.5-6.9-7.5-7-14.6c0-16.5,13.7-37.3,31.3-47.5l-223.8-129.1    c-17.6,10.2-31.4,31-31.3,47.5C2421.1,2164.5,2423.7,2169.5,2428,2172z"/>
		<path fill="#F34F2C" d="M2676.1,2239.1l145.7-83.8c13.2-7.6,13.2-20.1,0-27.7l-175.9-101.3c-13.2-7.6-34.7-7.7-47.9-0.1    l-145.7,83.8L2676.1,2239.1z"/>
		<defs>
			<filter id="Adobe_OpacityMaskFilter" filterUnits="userSpaceOnUse" x="2642.3" y="2047.2" width="119.2" height="72.7">
				<feFlood style="flood-color: rgb(255, 255, 255); flood-opacity: 1;" result="back"/>
				<feBlend in="SourceGraphic" in2="back" mode="normal"/>
			</filter>
		</defs>
		
			<mask maskUnits="userSpaceOnUse" x="2642.3" y="2047.2" width="119.2" height="72.7" id="SVGID_00000142884383715198373150000015403148227889088427_">
			<g filter="url(#Adobe_OpacityMaskFilter)">
				<path d="M2734.1,2095.6l16-9.2l11.4,6.4c0,0,1.4,9.4,0.7,10.5c-0.8,1.1-8.1,4.9-9.1,4.8      C2752.1,2107.8,2734.1,2095.6,2734.1,2095.6z"/>
			</g>
		</mask>
		<g mask="url(#SVGID_00000142884383715198373150000015403148227889088427_)">
			<path fill="#D78B7A" d="M2752.8,2086.1c0.7,0.4,1.1,1.2,1.1,2.4l0,18.6l-49.7-28.9l-0.1-18.6c0-1.2-0.4-2-1.1-2.4L2752.8,2086.1z     "/>
			<path fill="#FFB0A5" d="M2700.4,2048.7l49.7,28.9c0.2-0.1,0.5-0.3,0.7-0.4c0.7-0.3,1.3-0.6,2-0.8c0.9-0.3,1.8-0.4,2.6-0.4     c0.2,0,0.4,0,0.6,0c0.2,0,0.4,0.1,0.6,0.1c0.2,0,0.4,0.1,0.6,0.2c0.2,0,0.4,0.1,0.5,0.2c0.2,0.1,0.3,0.2,0.5,0.3l-49.7-28.9     C2706.4,2046.8,2703.5,2046.9,2700.4,2048.7z"/>
			<path fill="#FFB0A5" d="M2642.3,2086.4L2642.3,2086.4c0,1.5,0.6,3,1.7,4.4c0.7,0.8,1.6,1.6,2.7,2.4c0.2,0.1,0.4,0.2,0.6,0.4     l25.3,14.7c0.1,0,0.1,0.1,0.2,0.1c6.7,3.8,17.6,3.8,24.2-0.1l45.5-26.3l7.5-4.3l-49.7-28.9l-53,30.6c0,0,0,0-0.1,0     C2644,2081.3,2642.3,2083.9,2642.3,2086.4z"/>
			<path fill="#FFB0A5" d="M2647.3,2102.2l25.3,14.7c0.1,0,0.1,0.1,0.2,0.1L2647.3,2102.2z"/>
			<path fill="#FEA48F" d="M2644,2090.8c0.7,0.8,1.6,1.6,2.7,2.4c0.2,0.1,0.4,0.2,0.6,0.4l25.3,14.7c0.1,0,0.1,0.1,0.2,0.1     c6.7,3.8,17.6,3.8,24.2-0.1l45.5-26.3l7.5-4.3c0.2-0.1,0.5-0.3,0.7-0.4c0.7-0.4,1.3-0.6,2-0.8c0.9-0.3,1.8-0.4,2.6-0.4     c0.2,0,0.4,0,0.6,0c0.2,0,0.4,0.1,0.6,0.1c0.2,0,0.4,0.1,0.6,0.2c0.2,0.1,0.4,0.1,0.5,0.2c0.2,0.1,0.3,0.2,0.5,0.3     c2,1.2,3.3,3.7,3.3,7.3l0,18.6l-7.5,4.4l0-18.6c0-2.4-1.7-3.4-3.8-2.2l-0.7,0.4l0.7-0.4l-53,30.6c-3.4,1.9-7.8,2.9-12.2,2.9     c-4.3,0-8.7-0.9-12-2.8l-25.5-14.8c-0.2-0.1-0.4-0.2-0.6-0.4c-3-1.9-4.4-4.3-4.4-6.7v-8.7     C2642.3,2087.9,2642.8,2089.4,2644,2090.8z"/>
		</g>
		<g>
			<path fill="#EBDDD8" d="M2667.9,2094.3c8.3,4.8,21.8,4.8,30.1,0c8.3-4.8,8.3-12.6,0-17.4c-8.3-4.8-21.8-4.8-30.1,0     C2659.6,2081.7,2659.6,2089.5,2667.9,2094.3z"/>
			<path fill="#F6E7E0" d="M2672.6,2088.7c5.8,3.4,15.3,3.4,21.1,0c5.8-3.4,5.8-8.8,0-12.2c-5.8-3.4-15.3-3.4-21.1,0     C2666.8,2079.9,2666.8,2085.4,2672.6,2088.7z"/>
		</g>
	</g>
	<g>
		<g>
			<path fill="#C95D4B" d="M3667,1869.4l-368.5,214.1c-11.9,6.9-31.5,6.9-43.5,0l-269.8-155.8c-6-3.5-9.1-8.1-9-12.7     c0,16.7-0.1,33.4-0.1,50.1c0,4.6,3,9.2,9,12.7l269.8,155.8c12,6.9,31.6,6.9,43.5,0l368.5-214.1c5.9-3.4,8.9-8,8.9-12.5     c0-16.7,0.1-33.4,0.1-50.1C3675.9,1861.4,3672.9,1866,3667,1869.4z"/>
			<path fill="#FBF1EC" d="M3666.9,1844.2c12,6.9,12.1,18.3,0.1,25.2l-368.5,214.1c-11.9,6.9-31.5,6.9-43.5,0l-269.8-155.8     c-12-6.9-12.1-18.3-0.1-25.2l368.5-214.1c11.9-6.9,31.5-6.9,43.5,0L3666.9,1844.2z"/>
		</g>
		<g>
			<polygon fill="#FDB8AF" points="3564.2,1901.7 3298,1748.1 3373.7,1704.4 3639.8,1858.1    "/>
			<path fill="#725D39" d="M3290.6,1818.3c-6.1,3.5-16.1,3.5-22.2,0l-32.6-18.8c-6.1-3.5-6.1-9.3,0-12.8l32.6-18.8     c6.1-3.5,16.1-3.5,22.2,0l32.6,18.8c6.1,3.5,6.1,9.3,0,12.8L3290.6,1818.3z"/>
			<path fill="#725D39" d="M3360.3,1858.5c-6.1,3.5-16.1,3.5-22.2,0l-32.6-18.8c-6.1-3.5-6.1-9.3,0-12.8l32.6-18.8     c6.1-3.5,16.1-3.5,22.2,0l32.6,18.8c6.1,3.5,6.1,9.3,0,12.8L3360.3,1858.5z"/>
			<path fill="#725D39" d="M3430,1898.7c-6.1,3.5-16.1,3.5-22.2,0l-32.6-18.8c-6.1-3.5-6.1-9.3,0-12.8l32.6-18.8     c6.1-3.5,16.1-3.5,22.2,0l32.6,18.8c6.1,3.5,6.1,9.3,0,12.8L3430,1898.7z"/>
			<path fill="#725D39" d="M3499.7,1939c-6.1,3.5-16.1,3.5-22.2,0l-32.6-18.8c-6.1-3.5-6.1-9.3,0-12.8l32.6-18.8     c6.1-3.5,16.1-3.5,22.2,0l32.6,18.8c6.1,3.5,6.1,9.3,0,12.8L3499.7,1939z"/>
			<path fill="#725D39" d="M3221.7,1858.1c-6.1,3.5-16.1,3.5-22.2,0l-32.6-18.8c-6.1-3.5-6.1-9.3,0-12.8l32.6-18.8     c6.1-3.5,16.1-3.5,22.2,0l32.6,18.8c6.1,3.5,6.1,9.3,0,12.8L3221.7,1858.1z"/>
			<path fill="#725D39" d="M3291.4,1898.3c-6.1,3.5-16.1,3.5-22.2,0l-32.6-18.8c-6.1-3.5-6.1-9.3,0-12.8l32.6-18.8     c6.1-3.5,16.1-3.5,22.2,0l32.6,18.8c6.1,3.5,6.1,9.3,0,12.8L3291.4,1898.3z"/>
			<path fill="#725D39" d="M3361.1,1938.6c-6.1,3.5-16.1,3.5-22.2,0l-32.6-18.8c-6.1-3.5-6.1-9.3,0-12.8l32.6-18.8     c6.1-3.5,16.1-3.5,22.2,0l32.6,18.8c6.1,3.5,6.1,9.3,0,12.8L3361.1,1938.6z"/>
			<path fill="#725D39" d="M3430.8,1978.8c-6.1,3.5-16.1,3.5-22.2,0l-32.6-18.8c-6.1-3.5-6.1-9.3,0-12.8l32.6-18.8     c6.1-3.5,16.1-3.5,22.2,0l32.6,18.8c6.1,3.5,6.1,9.3,0,12.8L3430.8,1978.8z"/>
			<path fill="#725D39" d="M3152.7,1897.9c-6.1,3.5-16.1,3.5-22.2,0l-32.6-18.8c-6.1-3.5-6.1-9.3,0-12.8l32.6-18.8     c6.1-3.5,16.1-3.5,22.2,0l32.6,18.8c6.1,3.5,6.1,9.3,0,12.8L3152.7,1897.9z"/>
			<path fill="#725D39" d="M3222.4,1938.1c-6.1,3.5-16.1,3.5-22.2,0l-32.6-18.8c-6.1-3.5-6.1-9.3,0-12.8l32.6-18.8     c6.1-3.5,16.1-3.5,22.2,0l32.6,18.8c6.1,3.5,6.1,9.3,0,12.8L3222.4,1938.1z"/>
			<path fill="#725D39" d="M3292.1,1978.4c-6.1,3.5-16.1,3.5-22.2,0l-32.6-18.8c-6.1-3.5-6.1-9.3,0-12.8l32.6-18.8     c6.1-3.5,16.1-3.5,22.2,0l32.6,18.8c6.1,3.5,6.1,9.3,0,12.8L3292.1,1978.4z"/>
			<path fill="#725D39" d="M3293.6,2058c-6.1,3.5-16.1,3.5-22.2,0l-32.6-18.8c-6.1-3.5-6.1-9.3,0-12.8l100.8-58.2     c6.1-3.5,16.1-3.5,22.2,0l32.6,18.8c6.1,3.5,6.1,9.3,0,12.8L3293.6,2058z"/>
			<path fill="#725D39" d="M3083.8,1937.7c-6.1,3.5-16.1,3.5-22.2,0l-32.6-18.8c-6.1-3.5-6.1-9.3,0-12.8l32.6-18.8     c6.1-3.5,16.1-3.5,22.2,0l32.6,18.8c6.1,3.5,6.1,9.3,0,12.8L3083.8,1937.7z"/>
			<path fill="#725D39" d="M3153.5,1977.9c-6.1,3.5-16.1,3.5-22.2,0l-32.6-18.8c-6.1-3.5-6.1-9.3,0-12.8l32.6-18.8     c6.1-3.5,16.1-3.5,22.2,0l32.6,18.8c6.1,3.5,6.1,9.3,0,12.8L3153.5,1977.9z"/>
			<path fill="#725D39" d="M3223.2,2018.2c-6.1,3.5-16.1,3.5-22.2,0l-32.6-18.8c-6.1-3.5-6.1-9.3,0-12.8l32.6-18.8     c6.1-3.5,16.1-3.5,22.2,0l32.6,18.8c6.1,3.5,6.1,9.3,0,12.8L3223.2,2018.2z"/>
		</g>
		<g>
			<path fill="#B1A39F" d="M3290.6,1813.1c-6.1,3.5-16.1,3.5-22.2,0l-32.6-18.8c-6.1-3.5-6.1-9.3,0-12.8l32.6-18.8     c6.1-3.5,16.1-3.5,22.2,0l32.6,18.8c6.1,3.5,6.1,9.3,0,12.8L3290.6,1813.1z"/>
			<path fill="#B1A39F" d="M3360.3,1853.3c-6.1,3.5-16.1,3.5-22.2,0l-32.6-18.8c-6.1-3.5-6.1-9.3,0-12.8l32.6-18.8     c6.1-3.5,16.1-3.5,22.2,0l32.6,18.8c6.1,3.5,6.1,9.3,0,12.8L3360.3,1853.3z"/>
			<path fill="#B1A39F" d="M3430,1893.5c-6.1,3.5-16.1,3.5-22.2,0l-32.6-18.8c-6.1-3.5-6.1-9.3,0-12.8l32.6-18.8     c6.1-3.5,16.1-3.5,22.2,0l32.6,18.8c6.1,3.5,6.1,9.3,0,12.8L3430,1893.5z"/>
			<path fill="#B1A39F" d="M3499.7,1933.8c-6.1,3.5-16.1,3.5-22.2,0l-32.6-18.8c-6.1-3.5-6.1-9.3,0-12.8l32.6-18.8     c6.1-3.5,16.1-3.5,22.2,0l32.6,18.8c6.1,3.5,6.1,9.3,0,12.8L3499.7,1933.8z"/>
			<path fill="#B1A39F" d="M3221.7,1852.9c-6.1,3.5-16.1,3.5-22.2,0l-32.6-18.8c-6.1-3.5-6.1-9.3,0-12.8l32.6-18.8     c6.1-3.5,16.1-3.5,22.2,0l32.6,18.8c6.1,3.5,6.1,9.3,0,12.8L3221.7,1852.9z"/>
			<path fill="#B1A39F" d="M3291.4,1893.1c-6.1,3.5-16.1,3.5-22.2,0l-32.6-18.8c-6.1-3.5-6.1-9.3,0-12.8l32.6-18.8     c6.1-3.5,16.1-3.5,22.2,0l32.6,18.8c6.1,3.5,6.1,9.3,0,12.8L3291.4,1893.1z"/>
			<path fill="#B1A39F" d="M3361.1,1933.3c-6.1,3.5-16.1,3.5-22.2,0l-32.6-18.8c-6.1-3.5-6.1-9.3,0-12.8l32.6-18.8     c6.1-3.5,16.1-3.5,22.2,0l32.6,18.8c6.1,3.5,6.1,9.3,0,12.8L3361.1,1933.3z"/>
			<path fill="#B1A39F" d="M3430.8,1973.6c-6.1,3.5-16.1,3.5-22.2,0l-32.6-18.8c-6.1-3.5-6.1-9.3,0-12.8l32.6-18.8     c6.1-3.5,16.1-3.5,22.2,0l32.6,18.8c6.1,3.5,6.1,9.3,0,12.8L3430.8,1973.6z"/>
			<path fill="#B1A39F" d="M3152.7,1892.7c-6.1,3.5-16.1,3.5-22.2,0l-32.6-18.8c-6.1-3.5-6.1-9.3,0-12.8l32.6-18.8     c6.1-3.5,16.1-3.5,22.2,0l32.6,18.8c6.1,3.5,6.1,9.3,0,12.8L3152.7,1892.7z"/>
			<path fill="#B1A39F" d="M3222.4,1932.9c-6.1,3.5-16.1,3.5-22.2,0l-32.6-18.8c-6.1-3.5-6.1-9.3,0-12.8l32.6-18.8     c6.1-3.5,16.1-3.5,22.2,0l32.6,18.8c6.1,3.5,6.1,9.3,0,12.8L3222.4,1932.9z"/>
			<path fill="#B1A39F" d="M3292.1,1973.2c-6.1,3.5-16.1,3.5-22.2,0l-32.6-18.8c-6.1-3.5-6.1-9.3,0-12.8l32.6-18.8     c6.1-3.5,16.1-3.5,22.2,0l32.6,18.8c6.1,3.5,6.1,9.3,0,12.8L3292.1,1973.2z"/>
			<path fill="#B1A39F" d="M3293.6,2052.8c-6.1,3.5-16.1,3.5-22.2,0l-32.6-18.8c-6.1-3.5-6.1-9.3,0-12.8l100.8-58.2     c6.1-3.5,16.1-3.5,22.2,0l32.6,18.8c6.1,3.5,6.1,9.3,0,12.8L3293.6,2052.8z"/>
			<path fill="#B1A39F" d="M3083.8,1932.5c-6.1,3.5-16.1,3.5-22.2,0l-32.6-18.8c-6.1-3.5-6.1-9.3,0-12.8l32.6-18.8     c6.1-3.5,16.1-3.5,22.2,0l32.6,18.8c6.1,3.5,6.1,9.3,0,12.8L3083.8,1932.5z"/>
			<path fill="#B1A39F" d="M3153.5,1972.7c-6.1,3.5-16.1,3.5-22.2,0l-32.6-18.8c-6.1-3.5-6.1-9.3,0-12.8l32.6-18.8     c6.1-3.5,16.1-3.5,22.2,0l32.6,18.8c6.1,3.5,6.1,9.3,0,12.8L3153.5,1972.7z"/>
			<path fill="#B1A39F" d="M3223.2,2013c-6.1,3.5-16.1,3.5-22.2,0l-32.6-18.8c-6.1-3.5-6.1-9.3,0-12.8l32.6-18.8     c6.1-3.5,16.1-3.5,22.2,0l32.6,18.8c6.1,3.5,6.1,9.3,0,12.8L3223.2,2013z"/>
		</g>
	</g>
</g>
<g id="TEXT">
</g>
</svg>